<svg xmlns="http://www.w3.org/2000/svg" xmlns:xlink="http://www.w3.org/1999/xlink" width="219" height="36" viewBox="0 0 219 36">
    <defs>
        <path id="a" d="M15.81.374h15.81v31.101H0V.374z"/>
        <path id="c" d="M29.853.14H0v33.59h29.853V.14z"/>
        <path id="e" d="M10.763.054v29.628H.273V.054h10.49z"/>
        <path id="g" d="M29.617 29.615V0H0v29.615z"/>
        <path id="i" d="M2.767.002v7.405H.038V.002h2.729z"/>
        <path id="k" d="M24.575 5.637l-.074-.025-.155-.049a7.3 7.3 0 0 0-.88-.198 11.013 11.013 0 0 0-1.775-.131h-5.378a.866.866 0 0 0-.847.736l-1.144 7.354-.033.214a.983.983 0 0 1 .966-.84h2.013a13.069 13.069 0 0 0 1.377-.073c3.181-.349 5.622-2.012 6.496-5.888a11.52 11.52 0 0 0 .15-.791 4.745 4.745 0 0 0-.716-.309z"/>
        <path id="l" d="M14.289 13.538l.033-.215 1.144-7.354a.866.866 0 0 1 .847-.736h5.378c.637 0 1.232.043 1.774.132a7.4 7.4 0 0 1 1.035.246l.048.016.027.01a4.8 4.8 0 0 1 .714.307l.003.001c.27-1.742-.002-2.928-.93-4.003C23.339.76 21.492.254 19.128.254h-6.86a.985.985 0 0 0-.97.841L8.44 19.48a.595.595 0 0 0 .582.691h4.235l.118-.758.914-5.875z"/>
    </defs>
    <g fill="none" fill-rule="evenodd">
        <g transform="translate(187 3)">
            <mask id="b" fill="#fff">
                <use xlink:href="#a"/>
            </mask>
            <path fill="#DE1F26" d="M15.81.374C7.088.374.017 7.319 0 15.893v.06c.017 8.576 7.088 15.522 15.81 15.522 8.73 0 15.81-6.962 15.81-15.552 0-8.588-7.08-15.55-15.81-15.55" mask="url(#b)"/>
        </g>
        <path fill="#FEFEFE" d="M205.017 15.432v11.862c0 .684-.224 1.24-.64 1.597-.418.39-.93.587-1.54.587a2.27 2.27 0 0 1-1.507-.554c-.417-.39-.64-.946-.64-1.63V15.432h-6.51c-.673 0-1.217-.227-1.602-.652-.385-.422-.578-.944-.578-1.563 0-.62.193-1.14.578-1.565.385-.423.93-.652 1.603-.652h17.313c.673 0 1.218.23 1.603.652.385.424.576.946.576 1.565s-.191 1.141-.576 1.563c-.385.425-.93.652-1.603.652h-6.477z"/>
        <g transform="translate(126 .13)">
            <mask id="d" fill="#fff">
                <use xlink:href="#c"/>
            </mask>
            <path fill="#95BE47" d="M13.753 1.302c.19 0 .38.063.562.187-1.403.653-2.907 2.3-3.543 5.585l-2.674.82c.744-2.507 2.51-6.592 5.655-6.592m1.301 1.218c.27.668.444 1.625.444 2.918v.188l-3.384 1.037c.651-2.488 1.872-3.69 2.94-4.143m3.23 2.253l-1.638.501v-.349c0-1.071-.15-1.934-.39-2.617.968.12 1.613 1.21 2.028 2.465m7.863 1.907a.327.327 0 0 0-.296-.273l-2.733-.201s-1.812-1.78-2.01-1.977c-.2-.197-.588-.138-.74-.094l-1.014.31c-.605-1.723-1.673-3.307-3.553-3.307-.052 0-.105.002-.159.005C15.108.443 14.445.14 13.874.14c-4.379 0-6.47 5.415-7.127 8.167l-3.064.94c-.95.296-.98.325-1.104 1.21C2.485 11.127 0 30.141 0 30.141l19.363 3.59 10.491-2.246S26.171 6.849 26.147 6.68" mask="url(#d)"/>
        </g>
        <g transform="translate(145.09 4.178)">
            <mask id="f" fill="#fff">
                <use xlink:href="#e"/>
            </mask>
            <path fill="#5E8E3E" d="M6.76 2.36l-2.733-.202L2.016.181a.496.496 0 0 0-.28-.127L.272 29.682l10.49-2.245S7.08 2.801 7.058 2.632a.327.327 0 0 0-.297-.272" mask="url(#f)"/>
        </g>
        <path fill="#FFF" d="M141.801 12.273l-1.293 3.807s-1.134-.598-2.523-.598c-2.037 0-2.14 1.264-2.14 1.583 0 1.739 4.582 2.405 4.582 6.478 0 3.205-2.054 5.268-4.824 5.268-3.324 0-5.024-2.047-5.024-2.047l.89-2.909s1.747 1.484 3.222 1.484c.963 0 1.355-.75 1.355-1.298 0-2.269-3.759-2.37-3.759-6.097 0-3.137 2.276-6.173 6.87-6.173 1.77 0 2.644.502 2.644.502"/>
        <g transform="translate(65 4)">
            <mask id="h" fill="#fff">
                <use xlink:href="#g"/>
            </mask>
            <path fill="#000" d="M24.68 0H4.937A4.951 4.951 0 0 0 0 4.937V24.68c0 2.714 2.222 4.935 4.937 4.935H24.68c2.714 0 4.937-2.221 4.937-4.935V4.937A4.951 4.951 0 0 0 24.68 0zm-.449 22.662c0 .863-.706 1.567-1.57 1.567H6.954c-.863 0-1.57-.704-1.57-1.567V6.955c0-.863.707-1.57 1.57-1.57h15.707c.864 0 1.57.707 1.57 1.57v15.707zm-5.383-4.714a.9.9 0 0 1-.897.898H11.67a.898.898 0 0 1-.897-.898v-6.281c0-.494.403-.897.897-.897h6.281a.9.9 0 0 1 .897.897v6.281z" mask="url(#h)"/>
        </g>
        <g>
            <path fill="#179BD7" d="M23.088 29.231c-.143.957-.863.957-1.56.957h-.396l.279-1.787a.219.219 0 0 1 .216-.187h.181c.474 0 .922 0 1.153.274.138.164.18.407.127.743m1.61-1.816c-.372-.445-1.033-.68-1.912-.68h-2.627a.367.367 0 0 0-.36.312l-1.063 6.835a.22.22 0 0 0 .216.257H20.3a.257.257 0 0 0 .252-.22l.302-1.937a.366.366 0 0 1 .36-.313h.83c1.731 0 2.73-.85 2.99-2.533.118-.737.005-1.316-.335-1.721M28.883 31.685c-.12.73-.692 1.218-1.42 1.218-.364 0-.657-.118-.844-.344-.186-.224-.256-.542-.197-.896.114-.724.693-1.23 1.409-1.23.357 0 .647.121.839.349.193.229.268.55.213.903m1.753-2.485h-1.257c-.108 0-.2.08-.216.188l-.056.357-.088-.13c-.272-.4-.879-.535-1.485-.535-1.39 0-2.576 1.069-2.808 2.567-.12.748.05 1.463.469 1.961.384.458.931.65 1.584.65 1.12 0 1.74-.731 1.74-.731l-.056.354a.221.221 0 0 0 .217.258h1.132c.18 0 .332-.133.36-.314l.68-4.368a.221.221 0 0 0-.216-.257"/>
            <g transform="translate(31 26.732)">
                <mask id="j" fill="#fff">
                    <use xlink:href="#i"/>
                </mask>
                <path fill="#179BD7" d="M2.548.002H1.335a.22.22 0 0 0-.216.188L.04 7.15a.221.221 0 0 0 .216.257H1.34c.18 0 .333-.133.36-.313L2.765.259a.221.221 0 0 0-.216-.257" mask="url(#j)"/>
            </g>
            <path fill="#253B80" d="M4.355 29.231c-.144.957-.864.957-1.56.957h-.396l.278-1.787a.22.22 0 0 1 .216-.187h.182c.474 0 .921 0 1.153.274.138.164.18.407.127.743m1.612-1.816c-.374-.445-1.036-.68-1.915-.68H1.426a.367.367 0 0 0-.36.312L.002 33.882a.221.221 0 0 0 .216.257h1.254c.18 0 .333-.133.36-.313l.288-1.844a.366.366 0 0 1 .36-.313h.831c1.73 0 2.729-.85 2.99-2.533.117-.737.004-1.316-.335-1.721M10.15 31.685c-.122.73-.692 1.218-1.42 1.218-.365 0-.657-.118-.844-.344-.186-.224-.257-.542-.197-.896.113-.724.693-1.23 1.409-1.23.357 0 .647.121.839.349.192.229.267.55.213.903m1.753-2.485h-1.258a.22.22 0 0 0-.216.188l-.056.357-.088-.13c-.272-.4-.88-.535-1.485-.535-1.39 0-2.577 1.069-2.808 2.567-.12.748.05 1.463.468 1.961.384.458.932.65 1.584.65 1.12 0 1.741-.731 1.741-.731l-.056.354a.22.22 0 0 0 .216.258h1.133c.18 0 .332-.133.361-.314l.68-4.368a.22.22 0 0 0-.216-.257M18.601 29.2h-1.264c-.12 0-.233.061-.302.162l-1.743 2.607-.739-2.505a.367.367 0 0 0-.35-.264H12.96a.222.222 0 0 0-.208.294l1.392 4.147-1.309 1.874c-.103.148.001.351.179.351h1.262c.12 0 .232-.059.3-.159l4.204-6.158a.222.222 0 0 0-.18-.349"/>
            <path fill="#179BD7" d="M26.269 8.71a3.413 3.413 0 0 0-.977-.764 12.024 12.024 0 0 1-.15.79c-.875 3.878-3.316 5.54-6.497 5.89a13.32 13.32 0 0 1-1.377.072h-2.013a.982.982 0 0 0-.966.84l-.913 5.874-.118.76-.291 1.88a.52.52 0 0 0 .508.604h3.57a.864.864 0 0 0 .849-.734l.035-.185.672-4.33.043-.238a.862.862 0 0 1 .849-.736h.534c3.459 0 6.166-1.425 6.958-5.55.33-1.722.159-3.16-.716-4.173"/>
            <g transform="translate(0 2)">
                <use fill="#222D65" xlink:href="#k"/>
                <path stroke="#202E65" stroke-width=".03" d="M24.58 5.623c.262.09.5.192.727.325a11.546 11.546 0 0 1-.151.792c-.82 3.636-3.05 5.52-6.51 5.9a13.08 13.08 0 0 1-1.378.072h-2.013c-.475 0-.877.35-.98.824l.032-.215 1.144-7.354a.88.88 0 0 1 .862-.748h5.378c.646 0 1.24.043 1.777.132a7.315 7.315 0 0 1 .882.198l.156.049h.002l.073.025z"/>
            </g>
            <g transform="translate(0 2)">
                <use fill="#253B80" xlink:href="#l"/>
                <path stroke="#223C80" stroke-width=".03" d="M14.304 13.54l-.914 5.875-.133.771H9.022a.61.61 0 0 1-.597-.708l2.858-18.385a1 1 0 0 1 .985-.854h6.86c2.474 0 4.258.553 5.245 1.694.93 1.075 1.205 2.264.91 4.024l.005.002-.006-.001a4.783 4.783 0 0 0-.712-.307l-.014-.005-.013-.005-.027-.009-.02-.006-.155-.049a7.378 7.378 0 0 0-.878-.197 10.992 10.992 0 0 0-1.772-.132h-5.378a.85.85 0 0 0-.832.723l-1.144 7.354-.033.216z"/>
            </g>
        </g>
        <path d="M0 0h220v36H0z"/>
    </g>
</svg>
