<svg width="308" height="289" viewBox="0 0 308 289" xmlns="http://www.w3.org/2000/svg"><title>Pattern</title><g fill="none" fill-rule="evenodd" opacity=".08"><g stroke="#2D3B4E" stroke-width="1.25" stroke-linecap="round" stroke-linejoin="round"><path d="M299.76 320.683h-44.453c-.267 0-.486-.22-.486-.486v-44.512c0-.266.22-.486.487-.486h44.454c.267 0 .487.22.487.485v44.512c0 .267-.22.486-.486.486z"/><path d="M270.864 275.2v14.623l6.218-1.852 6.22 1.853V275.2"/></g><g stroke="#2D3B4E" stroke-width="1.25" stroke-linecap="round" stroke-linejoin="round"><path d="M273.058 241.644l-16.255-16.282 21.33-21.37 15.244 1.017 1.012 15.267-21.332 21.367z"/><path d="M287.28 213.15c-.56.56-1.468.56-2.032 0-.56-.563-.56-1.476 0-2.036.564-.562 1.47-.562 2.033 0 .562.56.562 1.473 0 2.035z"/><path d="M288.296 200.935c3.088-3.09 7.636-3.546 10.16-1.017 2.526 2.53 2.07 7.085-1.016 10.178-3.086 3.092-7.634 3.547-10.16 1.018"/></g><g stroke="#2D3B4E" stroke-width="1.25" stroke-linecap="round" stroke-linejoin="round"><path d="M273.645 52.9v6.405M278.47 52.9v8.352M268.82 52.9v12.245M273.645 52.9v8.352M283.295 52.9v8.352M288.12 52.9v12.245M297.348 73.96h-37.644c-.535 0-.972-.438-.972-.973v-28.81c0-.536.437-.973.972-.973h37.644c.534 0 .97.437.97.972v28.81c0 .536-.436.973-.97.973z"/></g><g stroke="#2D3B4E" stroke-width="1.25" stroke-linecap="round" stroke-linejoin="round"><path d="M205.268 284.15h-22.28v-22.444h22.28v22.443z"/><path d="M216.464 251.225v32.925h-45.27v-32.915"/><path d="M171.492 251.235c4.044 0 7.813-3.082 7.813-7.13 0 4.048 3.283 7.33 7.327 7.33 4.045 0 7.323-3.282 7.323-7.33 0 4.048 3.277 7.33 7.32 7.33 4.046 0 7.322-3.282 7.322-7.33 0 4.048 3.753 7.577 8.144 7.09"/><path d="M215.1 251.21c3.642-.244 6.523-3.28 6.523-6.993l-8.768-15.43h-38.513l-8.75 15.43c0 3.722 2.898 6.767 6.557 6.996M166.62 244.427h54.676M193.943 228.786v16.133M179.305 244.92l4.87-16.134M208.574 244.92l-4.867-16.134M194.128 261.707v22.443M190.266 272.475v3.943M197.93 272.475v3.943"/></g><g stroke="#2D3B4E" stroke-width="1.25" stroke-linecap="round" stroke-linejoin="round"><path d="M178.594 167.706l3.445 17.392h23.15l3.473-17.392M190.134 156.11l-10.383 11.595M197.082 156.11l10.422 11.595M176.238 167.706h34.74M193.608 172.344v8.116M186.66 172.344v8.116M200.556 172.344v8.116"/></g><g stroke="#2D3B4E" stroke-width="1.25" stroke-linecap="round" stroke-linejoin="round"><path d="M169.607 76.97h3.08M214.65 115.946h-42.084c-.32 0-.583-.263-.583-.584V74.115c0-.32.262-.584.583-.584h42.085c.322 0 .584.264.584.585v41.247c0 .32-.262.584-.583.584zM171.983 80.087h43.25M194.473 87.488h14.94M194.473 97.104h14.94M194.473 102.713h14.94M194.473 108.104h7.18"/><path d="M185.765 89.755v-4.17h-4.834v4.19c-1.215.8-2.028 2.175-2.028 3.733v15.694s1.72 1.46 4.465 1.46c2.864 0 4.463-1.46 4.463-1.46V93.508c0-1.574-.83-2.955-2.065-3.753zM179.05 95.937s3.93 3.496 8.586.145M179.05 102.056s3.93 3.496 8.586.146"/></g><path d="M175.304 10.595l4.05 20.328h27.22s1.377-6.858 1.795-8.93M199.127 10.595H168" stroke="#2D3B4E" stroke-width="1.25" stroke-linecap="round" stroke-linejoin="round"/><path d="M179.5 30.923v3.463h4.48M181.104 37.266c0-1.59 1.288-2.88 2.876-2.88 1.59 0 2.875 1.29 2.875 2.88 0 1.59-1.286 2.88-2.875 2.88-1.588 0-2.876-1.29-2.876-2.88zM199.65 30.923v3.463h4.48M201.255 37.266c0-1.59 1.288-2.88 2.875-2.88 1.588 0 2.876 1.29 2.876 2.88 0 1.59-1.288 2.88-2.876 2.88-1.587 0-2.875-1.29-2.875-2.88zM178.314 21.618h12.32M178.603 26.163h7.484M199.65 11.6c0-5.533 4.478-10.017 10.004-10.017s10.004 4.484 10.004 10.017c0 5.533-4.478 10.017-10.004 10.017S199.65 17.133 199.65 11.6z" stroke="#2D3B4E" stroke-width="1.25" stroke-linecap="round" stroke-linejoin="round"/><path d="M207.972 12.626h-1.636c.077.912.36 1.604.847 2.076s1.164.74 2.03.8v.987h.685v-.987c.58-.04 1.055-.155 1.426-.348.372-.194.667-.414.888-.662.22-.247.373-.5.458-.76.085-.26.128-.473.128-.643 0-.194-.014-.414-.04-.662-.028-.247-.115-.495-.262-.742-.147-.248-.375-.485-.684-.713-.31-.23-.75-.42-1.323-.575-.11-.03-.212-.058-.308-.08l-.284-.07V8.193c.262 0 .487.108.672.325.186.216.283.478.29.788h1.648c-.024-.402-.11-.75-.256-1.044-.146-.294-.336-.54-.568-.737-.232-.197-.5-.352-.806-.464-.306-.112-.632-.187-.98-.226v-.893h-.685v.893c-.348.023-.684.09-1.01.203-.324.112-.61.27-.858.476-.247.204-.446.458-.597.76-.15.3-.226.65-.226 1.043 0 .386.065.71.197.968.13.26.306.476.527.65.22.174.47.313.748.417.278.105.56.196.847.273.077.015.15.033.214.052.066.02.118.037.157.052v2.425c-.356-.07-.653-.232-.893-.487-.24-.256-.356-.604-.348-1.044zm1.926 1.53V11.93c.456.123.78.26.968.41.19.152.284.378.284.68 0 .186-.038.346-.116.48-.077.137-.176.25-.295.344-.12.092-.257.164-.407.214-.15.05-.296.083-.435.1zm-.685-5.962v1.89c-.37-.084-.638-.196-.8-.335-.163-.14-.244-.338-.244-.593 0-.162.028-.304.086-.423.058-.12.137-.22.238-.302.1-.08.213-.14.336-.18.124-.04.252-.058.383-.058z" fill="#2D3B4E"/><g stroke="#2D3B4E" stroke-width="1.25" stroke-linecap="round" stroke-linejoin="round"><path d="M126.878 309.94H87.306c-.618 0-1.123-.505-1.123-1.126v-38.868c0-.618.505-1.126 1.123-1.126h39.572c.617 0 1.125.508 1.125 1.126v38.868c0 .62-.508 1.127-1.125 1.127zM86.182 275.564h41.82M89.557 272.343h2.977M90.168 282.697h17.4M111.103 282.697h3.12M117.89 282.697h5.956M90.168 287.205h17.4M111.103 287.205h3.12M117.89 287.205h5.956"/></g><g stroke="#2D3B4E" stroke-width="1.25" stroke-linecap="round" stroke-linejoin="round"><path d="M91.904 228.527V216.29c0-8.458 6.848-15.316 15.296-15.316s15.297 6.858 15.297 15.317v12.237M97.12 212.325c1.258-2.924 3.67-5.23 6.665-6.348M124.248 233.668H89.936c-.266 0-.486-.22-.486-.487v-4.166c0-.268.22-.486.486-.486h34.312c.266 0 .486.218.486.486v4.167c0 .268-.22.488-.486.488z"/><path d="M104.007 233.668v2.478c.255 1.57 1.613 2.766 3.25 2.766 1.82 0 3.296-1.476 3.296-3.297v-1.68M107.2 200.974v-2.69"/></g><g stroke="#2D3B4E" stroke-width="1.25" stroke-linecap="round" stroke-linejoin="round"><path d="M269.07 153.47h3.203M284.612 153.47h1.83v-13.764l-10.932-23.23h-17.636v20.862h-3.047v16.132h1.803M286.464 109.065v44.405h20.387"/><path d="M306.543 147.882H291.77V109.13h14.773v38.752zM262.102 120.835h10.69l7.34 16.504h-18.03v-16.505zM284.476 156.275c-.944 3.335-4.41 5.27-7.74 4.325-3.33-.945-5.264-4.416-4.32-7.75.945-3.335 4.41-5.273 7.74-4.325 3.33.945 5.264 4.416 4.32 7.75zM268.93 156.275c-.944 3.335-4.41 5.27-7.74 4.325-3.33-.945-5.264-4.416-4.32-7.75.945-3.335 4.41-5.273 7.74-4.325 3.33.945 5.265 4.416 4.32 7.75zM292.12 135.14h14.445M292.12 121.787h14.445"/></g><g stroke="#2D3B4E" stroke-width="1.25" stroke-linecap="round" stroke-linejoin="round"><path d="M92.023 116.42h35.138M109.592 105.27v11.15M136.98 160.252c0 6.72-5.442 12.17-12.155 12.17-6.715 0-12.157-5.45-12.157-12.17 0-6.722 5.442-12.17 12.157-12.17 6.713 0 12.155 5.448 12.155 12.17z"/><path d="M119.713 159.44l5.034-5.04 5.147 5.153M124.747 154.4v12.685M127.962 117.115l-7.147-11.846h-22.21l-7.48 11.845v21.176c0 .27.22.487.486.487h35.866c.268 0 .486-.218.486-.486v-21.175zM113.117 164.37H91.612c-.268 0-.485-.22-.485-.486v-24.62c0-.268.217-.486.485-.486h35.863c.268 0 .486.218.486.486v8.685"/></g><g stroke="#2D3B4E" stroke-width="1.25" stroke-linecap="round" stroke-linejoin="round"><path d="M121.894 72.516h-28c-.438 0-.796-.358-.796-.798V47.406c0-.438.358-.798.795-.798h28c.438 0 .798.36.798.798v24.312c0 .44-.36.798-.796.798z"/><path d="M100.034 46.61v-5.057c0-4.346 3.518-7.872 7.86-7.872 4.34 0 7.86 3.527 7.86 7.873v5.056M110.064 59.885c0 1.044-.845 1.892-1.89 1.892-1.044 0-1.89-.848-1.89-1.892 0-1.045.846-1.893 1.89-1.893 1.045 0 1.89.848 1.89 1.893zM97.454 59.884h8.41M110.303 59.884h8.03M104.49 66.264c0 1.045-.846 1.893-1.89 1.893-1.045 0-1.89-.848-1.89-1.893 0-1.044.845-1.892 1.89-1.892 1.044 0 1.89.848 1.89 1.892zM97.454 66.264h3.254M104.49 66.264h13.844M106.89 53.505c0 1.044-.844 1.893-1.89 1.893-1.043 0-1.888-.85-1.888-1.893 0-1.045.845-1.893 1.89-1.893 1.044 0 1.89.848 1.89 1.893zM97.454 53.504h5.61M106.89 53.504h11.443"/></g><g stroke="#2D3B4E" stroke-width="1.25" stroke-linecap="round" stroke-linejoin="round"><path d="M56.45 283.985H5.205c-.535 0-.972-.437-.972-.972V236.08c0-.536.437-.974.972-.974l25.62-6.772 25.625 6.772c.534 0 .97.438.97.973v46.933c0 .535-.436.972-.97.972z"/><path d="M18.44 283.505v-23.143h24.773v23.624M18.44 266.764h24.773M18.44 272.605h24.773M18.44 278.446h24.773M4.233 242.598H57.42M4.233 246.492H57.42"/></g><g stroke="#2D3B4E" stroke-width="1.25" stroke-linecap="round" stroke-linejoin="round"><path d="M37.446 173.595c-1.186 3.428-4.238 5.867-7.815 5.867-3.576 0-6.626-2.438-7.813-5.863"/><path d="M51.003 147.55H8.26v42.8h42.743v-42.8z"/></g><g stroke="#2D3B4E" stroke-width="1.25" stroke-linecap="round" stroke-linejoin="round"><path d="M47.088 108.788h-34.58c-1.02 0-1.845-.83-1.845-1.85V84.935c0-1.022.826-1.85 1.846-1.85h34.578c1.02 0 1.847.828 1.847 1.85v22.003c0 1.02-.827 1.85-1.847 1.85z"/><path d="M48.365 83.55L30.038 99.674h-.812L10.898 83.55M11.247 108.276l12.776-12.794M47.845 108.276L35.068 95.482"/></g><g stroke="#2D3B4E" stroke-width="1.055" stroke-linecap="round" stroke-linejoin="round"><path d="M13.045 35.923c0 2.525-2.044 4.572-4.566 4.572-2.523 0-4.57-2.047-4.57-4.572s2.047-4.572 4.57-4.572c2.52 0 4.565 2.048 4.565 4.573zM26.403 35.923c0 2.525-2.044 4.572-4.566 4.572s-4.568-2.047-4.568-4.572 2.045-4.572 4.567-4.572c2.522 0 4.566 2.048 4.566 4.573zM50.025 35.923c0 2.525-2.044 4.572-4.566 4.572-2.523 0-4.568-2.047-4.568-4.572s2.045-4.572 4.567-4.572c2.52 0 4.565 2.048 4.565 4.573zM33.864 21.65H1.907c-.245 0-.445.2-.445.444v8.81c0 .246.2.447.445.447h31.957c.245 0 .445-.2.445-.445V18.86"/><path d="M33.864 21.533H1.907c-.245 0-.445-.2-.445-.445v-8.81c0-.247.2-.447.445-.447h31.957c.245 0 .445.2.445.447V24.32M50.126 38.154h6.126V24.882L52.465 14.4H38.097v16.95h17.486M33.42 31.35h6.347"/><path d="M55.47 24.883H43.444c-.245 0-.445-.2-.445-.446v-9.48"/></g></g></svg>