<svg xmlns="http://www.w3.org/2000/svg" xmlns:xlink="http://www.w3.org/1999/xlink" width="222" height="34" viewBox="0 0 222 34">
    <defs>
        <path id="a" d="M35.895 27.627h-1.42v-1.398h1.42z"/>
    </defs>
    <g fill="none" fill-rule="evenodd">
        <path fill="#CD1309" d="M188 34h34V0h-34z"/>
        <path fill="#FF0" d="M198.6 11.182c-.41 0-.548.16-.717.624l-1.423 3.871h-.897l-1.137-2.81-1.086 2.81h-.927l-1.485-3.81c-.17-.438-.42-.685-.79-.685h-.116v-.568h2.53v.568h-.245c-.283 0-.41.076-.4.237 0 .031-.01.087.02.16 0 0 .58 1.39 1.038 2.761.048.007.068.007.068.007l.993-2.53c-.041-.419-.18-.635-.61-.635h-.338v-.568h2.665v.568h-.42c-.253 0-.349.056-.349.206 0 .062.01.139.041.212 0 0 .6 1.473 1.038 2.754.058 0 .058.004.058.004l.962-2.563c.062-.17.062-.3.062-.387 0-.16-.138-.226-.42-.226h-.349v-.568h2.423v.568h-.19zm-.214 4.495v-.567l.293-.01c.434 0 .676-.043.676-.464v-2.99c0-.419-.242-.464-.676-.464h-.293v-.568h5.373v1.964h-.569c-.03-1.18-.303-1.365-1.316-1.365h-1.393v1.504h.359c.634 0 .717-.215.769-.978h.572v2.566h-.583c-.041-.87-.124-.989-.748-.989h-.369v1.762h1.603c.906 0 1.123-.435 1.203-1.441h.568v2.04h-5.47zm5.907 0v-.567h.286c.431 0 .62-.042.62-.474l-.01-2.98c0-.429-.251-.474-.675-.474h-.262v-.568h3.001v.568l-.358.01c-.483 0-.569.046-.569.464v3.422h1.214c.59 0 .937-.077 1.096-.376.148-.268.21-.571.21-1.065h.579v2.04h-5.132zm5.57 0v-.567h.076c.433 0 .623-.042.623-.474l-.01-2.98c0-.429-.204-.474-.624-.474h-.317v-.568h3.005v.568l-.358.01c-.487 0-.568.046-.568.464v3.422h1.209c.592 0 .94-.077 1.099-.376.145-.268.21-.571.21-1.065h.58v2.04h-4.925zM219.88 14.197c0 1.16-.895 1.577-2.221 1.577-.8 0-1.57-.463-1.738-.623l-.169.53h-.506v-2.037h.579c.158.971.8 1.392 1.712 1.435.786.034 1.344-.179 1.407-.732.072-.64-.62-.599-1.2-.707l-.855-.16c-1.275-.226-1.685-.603-1.716-1.448-.034-.923.79-1.525 1.896-1.536.538 0 1.234.087 1.771.526l.252-.418h.441v1.769h-.558c-.121-.982-1.072-1.281-1.885-1.26-.59.02-.98.365-.98.773 0 .38.37.428.838.51l1.044.186c1.066.18 1.889.404 1.889 1.605v.01M196.015 20.165c0-.39-.062-.735-.2-1.014-.169-.299-.514-.344-1.107-.344h-1.244v1.514h.393c.63 0 .728-.118.728-.901h.462v2.53l-.473-.01c-.01-.846-.097-1.02-.717-1.02h-.393v1.32c0 .421.066.462.497.462h.579v.569h-3.068v-.569l.287-.01c.43 0 .579-.041.579-.463v-2.99c0-.418-.149-.463-.58-.463h-.286v-.568h5.115v1.957h-.572M198.69 19.12l-.748 1.943h1.505l-.758-1.943zm.271 4.15v-.568h.538c.286 0 .424-.03.424-.204a.72.72 0 0 0-.076-.245l-.21-.59h-1.94l-.252.633a.615.615 0 0 0-.062.236c0 .16.134.17.4.17h.517v.569h-2.595v-.569h.227c.39 0 .507-.139.655-.494l1.665-4h1.22l1.592 4c.145.387.306.494.59.494h.24v.569h-2.933z"/>
        <path fill="#FF0" d="M205.758 19.549c0-.59-.338-.763-1.044-.763h-1.065v1.535l1.085-.01c.697 0 1.024-.226 1.024-.752v-.01zm1.757 2.541c0 .922-.42 1.288-1.02 1.288-.686 0-1.13-.191-1.16-.891l-.022-.589c-.03-.849-.297-1.02-1.158-1.02h-.506v1.362c0 .421.062.463.496.463h.451v.568h-3.036v-.568h.44c.287 0 .521-.105.521-.474v-2.99c0-.418-.065-.463-.496-.463h-.41v-.568h3.422c1.279 0 1.868.387 1.868 1.201 0 .731-.558 1.18-1.509 1.31.886.215 1.003.535 1.055 1.221.01.067 0 .206 0 .313.02.3.137.44.285.429.304-.02.328-.247.304-.85h.475c.01.087.01.175.01.258h-.01zM211.947 19.83c-.238-.759-.737-1.114-1.56-1.114-.811 0-1.455.676-1.445 1.964 0 1.309.517 2.016 1.445 2.026.675 0 1.275-.34 1.275-.923v-.278c0-.341-.083-.341-.559-.341h-.248v-.581h2.312v.581h-.19c-.358 0-.412-.035-.412.397v1.695h-.407l-.262-.42c-.455.365-1.106.535-1.69.535a2.332 2.332 0 0 1-1.726-.717c-.485-.505-.768-1.18-.758-1.974 0-.783.252-1.407.748-1.908.43-.432 1.085-.675 1.761-.665.559 0 1.21.15 1.579.547l.254-.526h.397v1.699l-.514.003M218.172 20.74c0-1.33-.713-2.024-1.693-2.024-.968 0-1.705.694-1.705 2.023 0 1.327.737 2.037 1.705 2.037.965 0 1.683-.71 1.683-2.037h.01zm-1.672 2.625c-1.654 0-2.936-1.052-2.936-2.647 0-1.587 1.282-2.625 2.925-2.625 1.652 0 2.903 1.038 2.903 2.636 0 1.584-1.25 2.636-2.892 2.636z"/>
        <g transform="translate(92 3)">
            <path fill="#0067B1" d="M29.166 15.665c.929.362 1.858.75 2.761 1.19a58.6 58.6 0 0 0-8.362 4.17 54.537 54.537 0 0 0-2.762-1.347 59.092 59.092 0 0 1 8.363-4.013M25.707 14.447a50.005 50.005 0 0 0-8.647 3.703c.878.337 1.755.673 2.607 1.036a47.626 47.626 0 0 1 8.389-3.935c-.775-.286-1.549-.57-2.349-.804"/>
            <path fill="#EE2A24" d="M35.437 15.535a53.806 53.806 0 0 0-7.33-2.874c-.903.259-1.78.544-2.632.829 2.58.776 5.11 1.76 7.536 2.925.8-.31 1.6-.595 2.426-.88M39.283 14.396a53.103 53.103 0 0 0-7.459-2.64c-.826.154-1.626.336-2.426.543a49.853 49.853 0 0 1 7.382 2.822c.826-.26 1.677-.518 2.503-.725M45.477 16.467a65.007 65.007 0 0 0-16.88 8.622c1.291.803 2.53 1.631 3.743 2.538a68.444 68.444 0 0 1 16.028-9.503 45.91 45.91 0 0 0-2.89-1.657M41.296 14.5a58.19 58.19 0 0 0-17.55 7.922 66.189 66.189 0 0 1 3.535 1.89c5.24-3.624 11.047-6.473 17.241-8.337-1.058-.517-2.116-1.035-3.226-1.476z"/>
            <path fill="#0067B1" d="M23.978 6.473c.413 0 .593-.363.593-1.657 0-1.191-.129-1.631-.593-1.631-.465 0-.594.44-.594 1.63 0 1.295.18 1.658.594 1.658m0-4.324c1.522 0 2.297 1.14 2.297 2.667 0 1.58-.75 2.693-2.297 2.693-1.575 0-2.297-1.114-2.297-2.693 0-1.528.774-2.667 2.297-2.667M27.333 3.443h-.671V2.304h.671v-.57c0-1.268.62-1.734 1.704-1.734.31 0 .567.052.826.077v1.27a1.102 1.102 0 0 0-.31-.052c-.439 0-.594.18-.594.491v.518h.904v1.14h-.904v3.961h-1.625V3.443zM8.156 4.945c-.568.052-1.007.285-1.007.932 0 .362.181.544.491.544.18 0 .387-.13.516-.311V4.945zm0-1.217c0-.31-.13-.517-.413-.517-.413 0-.542.362-.542.673l-1.445-.311c.18-.984 1.11-1.398 2.039-1.398.98 0 2.013.414 2.013 1.553v2.849c0 .57.077.75.155.828H8.259a4.255 4.255 0 0 1-.051-.466c-.284.285-.775.57-1.24.57-.825 0-1.445-.57-1.419-1.502.026-1.32 1.523-1.735 2.607-1.864v-.415zM12.415 3.754v3.65h-1.652v-5.1h1.6l.026.518c.361-.362.8-.647 1.445-.647.723 0 1.136.492 1.136 1.19v4.04h-1.652V3.884c0-.285-.103-.44-.387-.44-.18 0-.361.103-.516.31M15.977.155h1.652v3.677h.025l1.213-1.528h1.626l-1.367 1.554 1.367 3.547H18.79l-.8-2.227h-.026l-.335.389v1.838h-1.652zM1.755 3.029h.62c.645 0 .903-.363.903-.777 0-.699-.464-.802-.877-.802h-.646v1.579zm0 3.03h.671c.413 0 .93-.182.93-.907 0-.544-.336-.906-.93-.906h-.67v1.812zm2.04-2.434c.774.259 1.341.906 1.341 1.838 0 1.243-.98 1.942-2.374 1.942H0V.155h2.84c1.29 0 2.115.777 2.115 1.761 0 .958-.645 1.45-1.16 1.657v.052zM63.184 4.945c-.569.052-1.007.285-1.007.932 0 .362.18.544.464.544.207 0 .387-.13.542-.311V4.945zm0-1.217c0-.31-.155-.517-.44-.517-.386 0-.516.362-.541.673l-1.42-.311c.181-.984 1.11-1.398 2.04-1.398.98 0 2.012.414 2.012 1.553v2.849c0 .57.078.75.13.828h-1.678a4.168 4.168 0 0 1-.052-.466c-.284.285-.774.57-1.265.57-.8 0-1.445-.57-1.42-1.502.053-1.32 1.55-1.735 2.634-1.864v-.415zM47.517 4.22c0-.466-.052-1.036-.62-1.036-.464 0-.646.57-.62 1.036h1.24zm-1.24.984c-.025.44.104 1.217.775 1.217.387 0 .723-.31.8-.699l1.11.388a2.1 2.1 0 0 1-2.039 1.399c-1.575 0-2.297-1.27-2.297-2.693 0-1.45.774-2.667 2.271-2.667 1.574 0 2.142 1.372 2.142 2.718v.337h-2.761zM53.453 2.304h1.652v5.1h-1.652zM53.453.155h1.652v1.476h-1.652zM58.744 4.194c0-.206 0-.466-.077-.647-.078-.207-.207-.362-.465-.362-.542 0-.62.673-.62 1.709 0 1.14.181 1.527.62 1.527.568 0 .62-.595.62-.983l1.29.18c-.129 1.244-.852 1.891-2.04 1.891-1.47 0-2.245-1.295-2.245-2.563 0-1.398.775-2.797 2.323-2.797 1.73 0 2.013 1.528 2.013 2.045h-1.42zM33.166 4.66h1.188l-.517-2.951h-.052l-.62 2.951zM32.727.155h2.4l1.524 7.25h-1.755l-.284-1.476h-1.678l-.335 1.476h-1.575l1.703-7.25zM49.71 2.304h1.6v.674h.026c.336-.544.955-.803 1.6-.803v1.657a1.719 1.719 0 0 0-.67-.13c-.44 0-.723.156-.904.389v3.314H49.71v-5.1zM41.373 3.754v3.65h-1.625V3.91c0-.284-.078-.466-.387-.466-.155 0-.413.13-.543.311v3.65h-1.625v-5.1h1.6l.025.518c.362-.336.878-.647 1.472-.647.516 0 .852.285 1.006.673h.026c.284-.311.775-.673 1.446-.673.697 0 1.161.44 1.161 1.165v4.065h-1.626V3.909c0-.284-.077-.466-.387-.466-.207 0-.439.182-.543.311"/>
            <mask id="b" fill="#fff">
                <use xlink:href="#a"/>
            </mask>
            <path fill="#EE2A24" d="M34.605 26.928c0 .31.258.543.593.543.31 0 .568-.233.568-.543 0-.31-.258-.57-.568-.57a.58.58 0 0 0-.593.57m-.13 0c0-.39.31-.7.723-.7.387 0 .697.311.697.7 0 .388-.31.699-.697.699a.701.701 0 0 1-.722-.7" mask="url(#b)"/>
            <path fill="#EE2A24" d="M35.173 26.85c.103 0 .258.025.258-.104 0-.104-.078-.13-.181-.13h-.206v.234h.129zm.36.466h-.128l-.233-.363h-.129v.363h-.129v-.777h.362c.051 0 .129 0 .18.026.078.052.104.104.104.181 0 .156-.13.207-.258.207l.232.363z" mask="url(#b)"/>
        </g>
        <g>
            <path fill="#0087BD" d="M56.961 10a.424.424 0 0 0-.425.424V13.4h7.86L60.818 10h-3.856M64.684 14.3a.423.423 0 0 0-.424-.424h-2.975v7.86l3.398-3.58.001-3.856M60.384 22.021c.234 0 .424-.19.424-.425v-2.974h-7.861l3.58 3.399h3.857M52.66 17.722c0 .234.19.425.425.425h2.974v-7.86l-3.399 3.58v3.855"/>
            <path fill="#242726" d="M16.63 11.435v3.63h-5.057v-3.63l-1.842-.002v9.153h1.842v-3.932h5.057v3.932h1.845v-9.151H16.63M41.135 11.435v9.15h8.081l-1.023-1.611h-5.21v-2.32h5.045v-1.551h-5.046v-2.095h5.202l1.003-1.573h-8.052M2.884 11.433C.968 11.433 0 12.598 0 14.293v3.416c0 1.962 1.247 2.877 2.874 2.877h5.78l-1.072-1.673h-4.35c-.925 0-1.328-.334-1.328-1.369v-3.1c0-1 .34-1.39 1.352-1.39h4.372l1.028-1.621H2.884M33.052 11.43c-1.107 0-2.24.666-2.24 2.376v.44c0 1.784 1.09 2.464 2.182 2.469h3.833c.398 0 .721.066.721.739v.777c-.01.604-.312.743-.735.743H31.77l-1.033 1.61h6.194c1.493 0 2.507-.743 2.507-2.459v-.63c0-1.66-.942-2.444-2.403-2.444h-3.659c-.406 0-.688-.11-.688-.712v-.633c0-.511.193-.698.666-.698l4.802-.002 1.003-1.578-6.108.003M23.827 11.435l-4.34 9.151h2.051l.846-1.89H27.1l.842 1.89h2.06l-4.35-9.151h-1.825zm.91 1.9l1.668 3.804H23.08l1.657-3.804z"/>
        </g>
        <path d="M0 0h222v34H0z"/>
    </g>
</svg>
