<svg id="artwork" xmlns="http://www.w3.org/2000/svg" xmlns:xlink="http://www.w3.org/1999/xlink" width="107.81" height="31.94" viewBox="0 0 107.81 31.94"><defs><style>.cls-1,.cls-11,.cls-3,.cls-4{fill:#fff;}.cls-1{opacity:0;}.cls-2{fill:#a6a6a6;}.cls-3{stroke:#fff;stroke-miterlimit:10;stroke-width:0.2px;}.cls-5{fill:url(#linear-gradient);}.cls-6{fill:url(#linear-gradient-2);}.cls-7{fill:url(#linear-gradient-3);}.cls-8{fill:url(#linear-gradient-4);}.cls-9{opacity:0.2;}.cls-10,.cls-11,.cls-9{isolation:isolate;}.cls-10{opacity:0.12;}.cls-11{opacity:0.25;}</style><linearGradient id="linear-gradient" x1="17.46" y1="172.16" x2="4.06" y2="158.76" gradientTransform="matrix(1, 0, 0, -1, 0, 179.13)" gradientUnits="userSpaceOnUse"><stop offset="0" stop-color="#00a0ff"/><stop offset="0.01" stop-color="#00a1ff"/><stop offset="0.26" stop-color="#00beff"/><stop offset="0.51" stop-color="#00d2ff"/><stop offset="0.76" stop-color="#00dfff"/><stop offset="1" stop-color="#00e3ff"/></linearGradient><linearGradient id="linear-gradient-2" x1="27.07" y1="163.14" x2="7.75" y2="163.14" gradientTransform="matrix(1, 0, 0, -1, 0, 179.13)" gradientUnits="userSpaceOnUse"><stop offset="0" stop-color="#ffe000"/><stop offset="0.41" stop-color="#ffbd00"/><stop offset="0.78" stop-color="orange"/><stop offset="1" stop-color="#ff9c00"/></linearGradient><linearGradient id="linear-gradient-3" x1="19.88" y1="161.31" x2="1.7" y2="143.14" gradientTransform="matrix(1, 0, 0, -1, 0, 179.13)" gradientUnits="userSpaceOnUse"><stop offset="0" stop-color="#ff3a44"/><stop offset="1" stop-color="#c31162"/></linearGradient><linearGradient id="linear-gradient-4" x1="5.88" y1="178.98" x2="14" y2="170.86" gradientTransform="matrix(1, 0, 0, -1, 0, 179.13)" gradientUnits="userSpaceOnUse"><stop offset="0" stop-color="#32a071"/><stop offset="0.07" stop-color="#2da771"/><stop offset="0.48" stop-color="#15cf74"/><stop offset="0.8" stop-color="#06e775"/><stop offset="1" stop-color="#00f076"/></linearGradient></defs><title>google-play-badge</title><rect width="107.81" height="31.94" rx="3.99" ry="3.99"/><path class="cls-2" d="M103.87.65A3.36,3.36,0,0,1,107.23,4V28a3.36,3.36,0,0,1-3.35,3.35H4A3.36,3.36,0,0,1,.69,28V4A3.36,3.36,0,0,1,4,.65h99.83m0-.64H4a4,4,0,0,0-4,4V28a4,4,0,0,0,4,4h99.83a4,4,0,0,0,4-4V4a4,4,0,0,0-4-4Z" transform="translate(-0.05 -0.01)"/><path class="cls-3" d="M37.92,8.19a2.16,2.16,0,0,1-.6,1.6,2.32,2.32,0,0,1-1.76.71A2.47,2.47,0,0,1,33.08,8a2.47,2.47,0,0,1,2.49-2.5,2.47,2.47,0,0,1,1,.2,2,2,0,0,1,.75.54l-.42.42a1.62,1.62,0,0,0-1.31-.57A1.85,1.85,0,0,0,33.7,8a1.88,1.88,0,0,0,3.2,1.38,1.51,1.51,0,0,0,.4-1H35.57V7.83h2.32A2,2,0,0,1,37.92,8.19Z" transform="translate(-0.05 -0.01)"/><path class="cls-3" d="M41.6,6.19H39.42V7.71h2v.58h-2V9.8H41.6v.59H38.8V5.6h2.8Z" transform="translate(-0.05 -0.01)"/><path class="cls-3" d="M44.2,10.39h-.62V6.19H42.24V5.6h3.29v.59H44.2Z" transform="translate(-0.05 -0.01)"/><path class="cls-3" d="M47.92,10.39V5.6h.62v4.79Z" transform="translate(-0.05 -0.01)"/><path class="cls-3" d="M51.27,10.39h-.62V6.19H49.31V5.6H52.6v.59H51.27Z" transform="translate(-0.05 -0.01)"/><path class="cls-3" d="M58.84,9.77a2.49,2.49,0,0,1-3.51,0A2.45,2.45,0,0,1,54.62,8a2.45,2.45,0,0,1,.71-1.78,2.48,2.48,0,0,1,3.51,0A2.45,2.45,0,0,1,59.54,8,2.45,2.45,0,0,1,58.84,9.77Zm-3.06-.4a1.84,1.84,0,0,0,2.6,0A1.88,1.88,0,0,0,58.91,8a1.88,1.88,0,0,0-.53-1.38,1.84,1.84,0,0,0-2.6,0A1.88,1.88,0,0,0,55.25,8,1.88,1.88,0,0,0,55.78,9.37Z" transform="translate(-0.05 -0.01)"/><path class="cls-3" d="M60.41,10.39V5.6h.75l2.33,3.73h0l0-.92V5.6h.62v4.79h-.64L61,6.48h0l0,.92v3Z" transform="translate(-0.05 -0.01)"/><path class="cls-4" d="M54.47,17.38a3.4,3.4,0,1,0,3.41,3.4A3.35,3.35,0,0,0,54.47,17.38Zm0,5.46a2.06,2.06,0,1,1,1.92-2.06A2,2,0,0,1,54.47,22.83ZM47,17.38a3.4,3.4,0,1,0,3.41,3.4A3.35,3.35,0,0,0,47,17.38Zm0,5.46a2.06,2.06,0,1,1,1.92-2.06A2,2,0,0,1,47,22.83Zm-8.85-4.41v1.44h3.45a3,3,0,0,1-.78,1.81,3.53,3.53,0,0,1-2.66,1.05,3.83,3.83,0,0,1,0-7.67,3.68,3.68,0,0,1,2.6,1l1-1a5,5,0,0,0-3.62-1.45,5.28,5.28,0,1,0,0,10.55,4.82,4.82,0,0,0,3.68-1.48,4.76,4.76,0,0,0,1.25-3.37,4.69,4.69,0,0,0-.08-.9Zm36.18,1.12a3.16,3.16,0,0,0-2.91-2.16,3.23,3.23,0,0,0-3.2,3.4,3.32,3.32,0,0,0,3.37,3.4,3.38,3.38,0,0,0,2.83-1.51l-1.16-.77a1.94,1.94,0,0,1-1.67.94,1.73,1.73,0,0,1-1.65-1l4.54-1.88Zm-4.63,1.13a1.86,1.86,0,0,1,1.78-2,1.32,1.32,0,0,1,1.26.72ZM66,24h1.49V14H66ZM63.6,18.14h-.05a2.35,2.35,0,0,0-1.79-.76,3.4,3.4,0,0,0,0,6.79,2.32,2.32,0,0,0,1.79-.77h.05v.49c0,1.3-.69,2-1.81,2a1.88,1.88,0,0,1-1.71-1.21l-1.3.54a3.24,3.24,0,0,0,3,2c1.75,0,3.23-1,3.23-3.54v-6.1H63.6Zm-1.71,4.7a2.07,2.07,0,0,1,0-4.12,1.91,1.91,0,0,1,1.81,2.07A1.9,1.9,0,0,1,61.88,22.83ZM81.36,14H77.78V24h1.49V20.18h2.08a3.11,3.11,0,1,0,0-6.2Zm0,4.81H79.27V15.37h2.12a1.71,1.71,0,1,1,0,3.42Zm9.21-1.43a2.8,2.8,0,0,0-2.66,1.53l1.32.55a1.41,1.41,0,0,1,1.36-.73A1.43,1.43,0,0,1,92.2,20v.1a3.3,3.3,0,0,0-1.55-.39c-1.43,0-2.88.78-2.88,2.25a2.31,2.31,0,0,0,2.48,2.2,2.1,2.1,0,0,0,1.9-1h.05v.77h1.44V20.12A2.74,2.74,0,0,0,90.6,17.36Zm-.18,5.47c-.49,0-1.17-.24-1.17-.85,0-.77.85-1.07,1.58-1.07a2.65,2.65,0,0,1,1.36.33A1.81,1.81,0,0,1,90.42,22.83Zm8.45-5.25-1.71,4.33h-.05l-1.77-4.33H93.74l2.66,6L94.88,27h1.55l4.1-9.41ZM85.45,24h1.49V14H85.45Z" transform="translate(-0.05 -0.01)"/><path class="cls-5" d="M8.39,6A1.6,1.6,0,0,0,8,7.15V24.81a1.6,1.6,0,0,0,.37,1.12l.06.06,9.89-9.89v-.23L8.45,6Z" transform="translate(-0.05 -0.01)"/><path class="cls-6" d="M21.64,19.4l-3.3-3.3v-.23l3.3-3.3.07,0,3.91,2.22a1.21,1.21,0,0,1,0,2.31l-3.91,2.22Z" transform="translate(-0.05 -0.01)"/><path class="cls-7" d="M21.71,19.35,18.34,16l-10,10A1.3,1.3,0,0,0,10,26l11.67-6.63" transform="translate(-0.05 -0.01)"/><path class="cls-8" d="M21.71,12.61,10,6A1.3,1.3,0,0,0,8.39,6l10,10Z" transform="translate(-0.05 -0.01)"/><path class="cls-9" d="M21.64,19.28,10,25.87a1.33,1.33,0,0,1-1.6,0h0l-.06.06h0l.06.06h0A1.33,1.33,0,0,0,10,26l11.67-6.63Z" transform="translate(-0.05 -0.01)"/><path class="cls-10" d="M8.39,25.82A1.6,1.6,0,0,1,8,24.69v.12a1.6,1.6,0,0,0,.37,1.12l.06-.06Z" transform="translate(-0.05 -0.01)"/><path class="cls-10" d="M25.62,17l-4,2.26.07.07,3.91-2.22A1.4,1.4,0,0,0,26.46,16h0A1.49,1.49,0,0,1,25.62,17Z" transform="translate(-0.05 -0.01)"/><path class="cls-11" d="M10,6.09l15.57,8.85a1.49,1.49,0,0,1,.84,1h0a1.4,1.4,0,0,0-.84-1.15L10,6c-1.12-.63-2-.11-2,1.17v.12C8,6,8.93,5.46,10,6.09Z" transform="translate(-0.05 -0.01)"/></svg>