<svg xmlns="http://www.w3.org/2000/svg" width="95" height="32" viewBox="0 0 95 32">
    <g fill="none" fill-rule="nonzero">
        <rect width="95" height="32" fill="#000" rx="3.84"/>
        <g fill="#FFF">
            <path d="M20.797 15.267c-.02-2.289 1.884-3.402 1.97-3.454-1.078-1.565-2.75-1.778-3.337-1.795-1.404-.147-2.765.836-3.48.836-.73 0-1.831-.822-3.018-.798-1.528.023-2.957.903-3.74 2.27-1.618 2.786-.412 6.88 1.138 9.132.775 1.104 1.68 2.335 2.866 2.291 1.16-.046 1.594-.735 2.993-.735 1.387 0 1.794.735 3.003.707 1.245-.018 2.028-1.107 2.776-2.22.896-1.264 1.256-2.51 1.27-2.574-.028-.01-2.417-.916-2.44-3.66M18.513 8.536c.624-.776 1.05-1.832.932-2.904-.903.04-2.032.622-2.682 1.38-.575.67-1.09 1.766-.956 2.798 1.014.075 2.055-.51 2.706-1.274"/>
        </g>
        <g fill="#FFF">
            <path d="M37.597 23.591h-1.621l-.888-2.776h-3.086l-.846 2.776h-1.578l3.058-9.451h1.889l3.072 9.451zm-2.777-3.94l-.803-2.468c-.085-.253-.245-.847-.479-1.781h-.028c-.094.402-.245.995-.451 1.78l-.79 2.468h2.551zM45.446 20.1c0 1.159-.316 2.075-.949 2.747-.567.6-1.271.898-2.111.898-.907 0-1.56-.322-1.956-.967v3.576H38.91v-7.338c0-.728-.02-1.474-.057-2.24h1.338l.085 1.08h.029c.507-.814 1.278-1.22 2.311-1.22.808 0 1.482.317 2.022.952.539.637.81 1.474.81 2.512zm-1.55.055c0-.663-.15-1.21-.45-1.64a1.562 1.562 0 0 0-1.326-.674c-.375 0-.716.125-1.021.372a1.717 1.717 0 0 0-.599.976c-.047.186-.07.339-.07.46v1.137c0 .495.152.913.458 1.255.305.341.702.512 1.19.512.573 0 1.02-.22 1.339-.659.32-.44.48-1.019.48-1.739zM53.324 20.1c0 1.159-.316 2.075-.95 2.747-.567.6-1.27.898-2.111.898-.907 0-1.559-.322-1.956-.967v3.576h-1.522v-7.338c0-.728-.019-1.474-.056-2.24h1.338l.085 1.08h.029c.507-.814 1.277-1.22 2.311-1.22.807 0 1.482.317 2.023.952.538.637.81 1.474.81 2.512zm-1.55.055c0-.663-.151-1.21-.453-1.64a1.559 1.559 0 0 0-1.323-.674 1.59 1.59 0 0 0-1.023.372 1.72 1.72 0 0 0-.598.976c-.046.186-.071.339-.071.46v1.137c0 .495.153.913.457 1.255.306.34.703.512 1.192.512.574 0 1.02-.22 1.338-.659.32-.44.48-1.019.48-1.739zM62.132 20.94c0 .805-.282 1.459-.845 1.964-.618.55-1.48.827-2.587.827-1.022 0-1.841-.196-2.46-.589l.352-1.262c.668.393 1.4.59 2.199.59.574 0 1.02-.13 1.338-.386.32-.258.48-.6.48-1.03 0-.384-.132-.706-.395-.969-.263-.26-.699-.504-1.31-.727-1.663-.618-2.495-1.521-2.495-2.708 0-.775.294-1.41.88-1.907.587-.495 1.365-.743 2.333-.743.864 0 1.584.15 2.156.449l-.382 1.234c-.538-.29-1.146-.435-1.825-.435-.537 0-.959.132-1.26.393a1.122 1.122 0 0 0-.382.857c0 .372.147.682.438.924.253.225.714.468 1.38.73.819.328 1.42.71 1.804 1.149.388.439.58.986.58 1.64M67.176 17.912h-1.677v3.31c0 .84.295 1.26.887 1.26.272 0 .498-.022.676-.07l.042 1.15c-.3.111-.694.168-1.182.168-.602 0-1.07-.184-1.41-.548-.339-.365-.508-.977-.508-1.837v-3.436h-.999v-1.136h.999v-1.248l1.495-.449v1.697h1.677v1.14M74.729 20.127c0 1.048-.3 1.908-.902 2.58-.63.692-1.466 1.038-2.509 1.038-1.006 0-1.806-.332-2.403-.995-.596-.663-.895-1.5-.895-2.509 0-1.056.31-1.921.923-2.594.615-.672 1.445-1.01 2.487-1.01 1.006 0 1.813.334 2.424.996.584.644.875 1.475.875 2.494zm-1.578.035c0-.624-.135-1.16-.407-1.608-.32-.54-.777-.81-1.368-.81-.609 0-1.078.27-1.395.81-.273.448-.408.993-.408 1.637 0 .625.135 1.161.408 1.607.329.542.788.813 1.383.813.581 0 1.037-.277 1.368-.825.279-.46.42-.998.42-1.624zM79.677 18.108a2.662 2.662 0 0 0-.48-.042c-.535 0-.949.2-1.24.603-.253.355-.38.804-.38 1.346v3.576h-1.521v-4.669c0-.785-.015-1.501-.045-2.145h1.326l.055 1.304h.043c.16-.449.414-.81.76-1.08.34-.244.706-.366 1.1-.366.14 0 .268.011.38.028l.002 1.445M86.483 19.861c0 .271-.018.5-.056.687h-4.564c.016.673.238 1.189.661 1.544.385.317.883.476 1.493.476.676 0 1.293-.107 1.848-.323l.238 1.051c-.648.28-1.414.421-2.296.421-1.062 0-1.896-.31-2.502-.931-.605-.622-.91-1.458-.91-2.503 0-1.027.282-1.883.847-2.565.591-.729 1.39-1.093 2.395-1.093.987 0 1.734.364 2.241 1.093.403.577.605 1.293.605 2.143zm-1.451-.393c.01-.45-.09-.836-.296-1.164-.263-.422-.669-.632-1.212-.632-.498 0-.903.205-1.211.617a2.258 2.258 0 0 0-.45 1.178l3.169.001z"/>
        </g>
        <g fill="#FFF">
            <path d="M34.086 10.757h-.797l-.436-1.364h-1.517l-.416 1.364h-.776l1.504-4.645h.927l1.511 4.645zM32.722 8.82l-.395-1.213a18.024 18.024 0 0 1-.235-.875h-.015c-.048.2-.118.49-.222.875l-.387 1.213h1.254zM37.845 7.408l-1.275 3.349h-.727l-1.233-3.35h.803l.576 1.772c.097.296.18.579.242.847h.02c.056-.24.139-.523.242-.847l.568-1.771h.784M40.559 10.757l-.056-.386h-.02c-.23.31-.562.462-.984.462-.603 0-1.032-.42-1.032-.986 0-.826.72-1.254 1.967-1.254v-.062c0-.44-.236-.662-.7-.662-.332 0-.623.083-.879.249l-.152-.49c.312-.193.7-.29 1.157-.29.88 0 1.323.462 1.323 1.386v1.234c0 .338.015.6.049.8l-.673-.001zm-.104-1.668c-.832 0-1.247.2-1.247.675 0 .352.214.524.512.524.381 0 .735-.29.735-.682v-.517zM42.85 6.856a.438.438 0 0 1-.444-.448c0-.255.2-.441.457-.441s.464.186.457.44c0 .27-.193.449-.47.449zm-.36.552h.747v3.349h-.748v-3.35zM44.566 5.87h.748v4.887h-.748zM48.493 10.757l-.056-.386h-.02c-.228.31-.56.462-.983.462-.603 0-1.033-.42-1.033-.986 0-.826.72-1.254 1.968-1.254v-.062c0-.44-.236-.662-.7-.662-.333 0-.624.083-.88.249l-.152-.49c.312-.193.7-.29 1.157-.29.88 0 1.324.462 1.324 1.386v1.233c0 .338.014.6.047.8h-.672zm-.104-1.668c-.831 0-1.247.2-1.247.675 0 .352.215.524.513.524.38 0 .734-.29.734-.682v-.517zM52.148 10.833c-.478 0-.83-.2-1.06-.593h-.014l-.042.517h-.637c.02-.268.027-.572.027-.903V5.871h.75v2.027h.013c.222-.372.582-.559 1.073-.559.811 0 1.38.69 1.38 1.696 0 1.04-.632 1.798-1.49 1.798zm-.152-2.909c-.43 0-.825.372-.825.89v.585c0 .462.354.84.811.84.56 0 .895-.454.895-1.177-.001-.676-.348-1.138-.881-1.138zM54.744 5.87h.748v4.887h-.748zM59.563 9.261h-2.245c.015.634.436.992 1.059.992.333 0 .638-.055.908-.158l.116.517c-.318.138-.692.207-1.128.207-1.054 0-1.677-.662-1.677-1.688 0-1.027.638-1.8 1.593-1.8.858 0 1.4.635 1.4 1.593.002.13-.005.248-.026.337zm-.685-.53c0-.517-.264-.882-.743-.882-.43 0-.768.372-.817.882h1.56zM64.097 10.833c-.984 0-1.621-.73-1.621-1.723 0-1.034.65-1.771 1.677-1.771.969 0 1.621.696 1.621 1.716 0 1.047-.672 1.778-1.677 1.778zm.028-2.95c-.54 0-.886.503-.886 1.206 0 .69.353 1.192.88 1.192.525 0 .878-.537.878-1.206 0-.682-.346-1.192-.872-1.192zM69.795 10.757h-.746V8.834c0-.593-.23-.89-.68-.89-.443 0-.748.38-.748.82v1.993h-.747V8.365c0-.296-.009-.614-.029-.958h.658l.035.517h.022c.199-.358.609-.586 1.066-.586.705 0 1.17.538 1.17 1.413v2.006M74.69 7.966h-.823v1.626c0 .414.144.621.435.621.131 0 .243-.014.333-.035l.02.565c-.145.056-.34.084-.58.084-.591 0-.942-.324-.942-1.172v-1.69h-.49v-.557h.49v-.614l.734-.22v.833h.822v.559M78.65 10.757h-.748v-1.91c0-.598-.23-.902-.679-.902-.387 0-.747.262-.747.793v2.019h-.749V5.871h.749v2.012h.014c.235-.365.576-.545 1.012-.545.713 0 1.149.551 1.149 1.427v1.992M82.473 9.261h-2.245c.014.634.436.992 1.06.992.333 0 .637-.055.906-.158l.117.517c-.318.138-.692.207-1.13.207-1.052 0-1.675-.662-1.675-1.688 0-1.027.637-1.8 1.592-1.8.859 0 1.4.635 1.4 1.593.003.13-.004.248-.025.337zm-.686-.53c0-.517-.263-.882-.74-.882-.43 0-.77.372-.819.882h1.559z"/>
        </g>
    </g>
</svg>
