<?xml version="1.0" encoding="utf-8"?>
<!-- Generator: Adobe Illustrator 21.0.0, SVG Export Plug-In . SVG Version: 6.00 Build 0)  -->
<svg version="1.1" xmlns="http://www.w3.org/2000/svg" xmlns:xlink="http://www.w3.org/1999/xlink" x="0px" y="0px" width="463.3px"
	 height="636.7px" viewBox="0 0 463.3 636.7" style="enable-background:new 0 0 463.3 636.7;" xml:space="preserve">
<style type="text/css">
	.st0{fill:#108000;}
	.st1{fill:#FFFFFF;}
	.st2{fill:#B80000;}
	.st3{fill:#F95700;}
	.st4{fill:#BABEC5;}
	.st5{fill:#393A3D;}
	.st6{fill:#AAAAAA;}
	.st7{fill:#32AB25;}
	.st8{fill:#9DA0A6;}
	.st9{fill-rule:evenodd;clip-rule:evenodd;fill:#393A3D;}
	.st10{fill-rule:evenodd;clip-rule:evenodd;fill:#C9007A;}
	.st11{fill:#C9007A;}
	.st12{fill-rule:evenodd;clip-rule:evenodd;fill:none;}
	.st13{fill:#D4D7DC;}
	.st14{fill:#5C5C5C;}
	.st15{fill:#2CA01C;}
</style>
<g id="Layer_1">
	<path class="st0" d="M7.4,516.1c0,0,75,5.1,78,5.1c3,0,72.2-5.1,72.2-5.1v-22.9H7.4V516.1z"/>
	<g>
		<path class="st1" d="M25.8,509.2l-0.7-1.7h-3.3l-0.6,1.7H19l3.6-8.5h2l3.5,8.5H25.8z M23.6,503l-1.1,2.9h2.1L23.6,503z"/>
		<path class="st1" d="M32,509.2h-3.2v-8.5h3.1c2.4,0,4.9,1,4.9,4.2C36.8,507.9,34.4,509.2,32,509.2z M31.9,502.5h-1v5h1
			c1.5,0,2.8-0.6,2.8-2.5C34.6,503,33.3,502.5,31.9,502.5z"/>
		<path class="st1" d="M41.3,509.2h-3.2v-8.5h3.1c2.4,0,4.9,1,4.9,4.2C46.1,507.9,43.7,509.2,41.3,509.2z M41.2,502.5h-1v5h1
			c1.5,0,2.8-0.6,2.8-2.5C44,503,42.6,502.5,41.2,502.5z"/>
		<path class="st1" d="M47,506.9v-1.6h3v1.6H47z"/>
		<path class="st1" d="M55.6,509.4c-2.7,0-4.6-1.8-4.6-4.5c0-2.7,2-4.4,4.6-4.4c2.7,0,4.6,1.7,4.6,4.4
			C60.3,507.6,58.3,509.4,55.6,509.4z M55.6,502.3c-1.4,0-2.4,1.1-2.4,2.6c0,1.5,1,2.6,2.4,2.6s2.4-1.1,2.4-2.6
			C58.1,503.4,57.1,502.3,55.6,502.3z"/>
		<path class="st1" d="M67,509.2l-3.4-5.6h0l0,5.6h-2v-8.5H64l3.4,5.5h0l0-5.5h2v8.5H67z"/>
		<path class="st1" d="M75.6,502.9c-0.3-0.4-1-0.7-1.5-0.7c-0.5,0-1.2,0.2-1.2,0.9c0,0.6,0.5,0.7,1.3,1c1.2,0.4,2.6,0.9,2.6,2.6
			c0,2-1.6,2.8-3.2,2.8c-1.2,0-2.4-0.4-3.2-1.2l1.3-1.4c0.4,0.5,1.2,0.9,1.8,0.9c0.6,0,1.2-0.2,1.2-0.9c0-0.6-0.6-0.9-1.8-1.2
			c-1.1-0.3-2.2-0.9-2.2-2.4c0-1.9,1.7-2.7,3.3-2.7c1,0,2,0.4,2.8,1L75.6,502.9z"/>
		<path class="st1" d="M84.1,512.2l0-12h1.6v12H84.1z"/>
		<path class="st1" d="M96.1,509.4c-1.5,0-2.8-0.8-3.2-2.2l1.8-0.6c0.2,0.6,0.7,1,1.4,1c0.7,0,1.3-0.4,1.3-1.2c0-1-0.9-1.3-1.7-1.3
			c-0.6,0-1.5,0.2-2.1,0.4l0.2-4.9h5.2v1.7h-3.4l-0.1,1.3c0.3-0.1,0.6-0.1,0.9-0.1c1.7,0,3.1,0.9,3.1,2.7
			C99.4,508.5,97.8,509.4,96.1,509.4z"/>
		<path class="st1" d="M104.1,509.4c-2.4,0-3.3-2.1-3.3-4.5c0-2.4,0.9-4.4,3.3-4.4c2.4,0,3.3,2.1,3.3,4.4
			C107.4,507.4,106.5,509.4,104.1,509.4z M104.1,502.2c-1.1,0-1.3,1.7-1.3,2.7c0,1.1,0.2,2.8,1.3,2.8c1.1,0,1.2-1.7,1.2-2.8
			C105.3,503.9,105.1,502.2,104.1,502.2z"/>
		<path class="st1" d="M110.6,505.1c-1.3,0-2.3-1-2.3-2.3c0-1.3,1-2.3,2.3-2.3s2.3,1,2.3,2.3C112.9,504.1,111.8,505.1,110.6,505.1z
			 M110.6,501.9c-0.5,0-0.9,0.4-0.9,0.9s0.4,0.9,0.9,0.9s0.9-0.4,0.9-0.9S111.1,501.9,110.6,501.9z M111.5,509.6l-1.1-0.5l5-8.8
			l1.1,0.5L111.5,509.6z M116.3,509.4c-1.3,0-2.3-1-2.3-2.3c0-1.3,1-2.3,2.3-2.3s2.3,1,2.3,2.3C118.6,508.4,117.6,509.4,116.3,509.4
			z M116.3,506.2c-0.5,0-0.9,0.4-0.9,0.9s0.4,0.9,0.9,0.9c0.5,0,0.9-0.4,0.9-0.9S116.8,506.2,116.3,506.2z"/>
		<path class="st1" d="M127,509.4c-2.7,0-4.6-1.8-4.6-4.5c0-2.7,2-4.4,4.6-4.4c2.7,0,4.6,1.7,4.6,4.4
			C131.7,507.6,129.7,509.4,127,509.4z M127,502.3c-1.4,0-2.4,1.1-2.4,2.6c0,1.5,1,2.6,2.4,2.6c1.4,0,2.4-1.1,2.4-2.6
			C129.5,503.4,128.5,502.3,127,502.3z"/>
		<path class="st1" d="M135.1,502.5v1.8h3.3v1.7h-3.3v3.3h-2v-8.5h5.6v1.8H135.1z"/>
		<path class="st1" d="M142,502.5v1.8h3.3v1.7H142v3.3h-2v-8.5h5.6v1.8H142z"/>
	</g>
	<path class="st0" d="M7.7,551.9c0,0,75,5.1,78,5.1c3,0,72.2-5.1,72.2-5.1V529H7.7V551.9z"/>
	<g>
		<path class="st1" d="M60.4,546l-0.7-1.7h-3.3l-0.6,1.7h-2.2l3.6-8.5h2l3.5,8.5H60.4z M58.1,539.8l-1.1,2.9h2.1L58.1,539.8z"/>
		<path class="st1" d="M66.6,546h-3.2v-8.5h3.1c2.4,0,4.9,1,4.9,4.2C71.4,544.7,68.9,546,66.6,546z M66.5,539.3h-1v5h1
			c1.5,0,2.8-0.6,2.8-2.5C69.2,539.8,67.9,539.3,66.5,539.3z"/>
		<path class="st1" d="M75.9,546h-3.2v-8.5h3.1c2.4,0,4.9,1,4.9,4.2C80.7,544.7,78.3,546,75.9,546z M75.8,539.3h-1v5h1
			c1.5,0,2.8-0.6,2.8-2.5C78.5,539.8,77.2,539.3,75.8,539.3z"/>
		<path class="st1" d="M81.6,543.7v-1.6h3v1.6H81.6z"/>
		<path class="st1" d="M90.2,546.2c-2.7,0-4.6-1.8-4.6-4.5c0-2.7,2-4.4,4.6-4.4c2.7,0,4.6,1.7,4.6,4.4
			C94.8,544.4,92.9,546.2,90.2,546.2z M90.2,539.1c-1.4,0-2.4,1.1-2.4,2.6c0,1.5,1,2.6,2.4,2.6s2.4-1.1,2.4-2.6
			C92.7,540.3,91.7,539.1,90.2,539.1z"/>
		<path class="st1" d="M101.6,546l-3.4-5.6h0l0,5.6h-2v-8.5h2.3l3.4,5.5h0l0-5.5h2v8.5H101.6z"/>
		<path class="st1" d="M110.2,539.7c-0.3-0.4-1-0.7-1.5-0.7c-0.5,0-1.2,0.2-1.2,0.9c0,0.6,0.5,0.7,1.3,1c1.2,0.4,2.6,0.9,2.6,2.6
			c0,2-1.6,2.8-3.2,2.8c-1.2,0-2.4-0.4-3.2-1.2l1.3-1.4c0.4,0.5,1.2,0.9,1.8,0.9c0.6,0,1.2-0.2,1.2-0.9c0-0.6-0.6-0.9-1.8-1.2
			c-1.1-0.3-2.2-0.9-2.2-2.4c0-1.9,1.7-2.7,3.3-2.7c1,0,2,0.4,2.8,1L110.2,539.7z"/>
	</g>
	<rect x="187.5" y="9" class="st2" width="14" height="7"/>
	<rect x="286.6" y="65" class="st2" width="7" height="13"/>
	<polygon class="st3" points="187.5,9 293.6,77.9 293.6,54.5 223.5,9 	"/>
	<g>
		<g>
			<path class="st1" d="M216.9,13l1.7,1.1l-1.2,5.2l0,0l4.3-3.2l1.7,1.1l-3.9,5.9l-1-0.7l3.1-4.8l0,0l-4.9,3.6l-0.7-0.5l1.3-5.9l0,0
				l-3.1,4.8l-1-0.7L216.9,13z"/>
			<path class="st1" d="M228.3,20.1c1.9,1.2,2.4,3.3,1.2,5.2c-1.2,1.9-3.4,2.3-5.2,1.1c-1.8-1.2-2.3-3.3-1.1-5.2
				C224.3,19.3,226.4,19,228.3,20.1z M224.8,25.4c1.2,0.8,2.6,0.4,3.5-0.9c0.8-1.2,0.6-2.7-0.6-3.5c-1.2-0.8-2.7-0.4-3.4,0.8
				C223.4,23.2,223.6,24.7,224.8,25.4z"/>
			<path class="st1" d="M235.2,26.6c0-0.4-0.3-0.9-0.8-1.2c-0.5-0.3-1.2-0.4-1.6,0.1c-0.4,0.5,0,1,0.5,1.6c0.6,0.7,1.4,1.7,0.6,2.9
				c-0.8,1.3-2.2,1.2-3.4,0.5c-0.8-0.5-1.4-1.3-1.5-2.2l1.2-0.2c0,0.6,0.4,1.2,0.9,1.5c0.5,0.3,1.2,0.5,1.6-0.2
				c0.4-0.6-0.1-1.2-0.7-1.9c-0.6-0.7-1.1-1.6-0.4-2.7c0.8-1.2,2.2-1,3.3-0.3c0.6,0.4,1.1,1,1.3,1.8L235.2,26.6z"/>
			<path class="st1" d="M238.9,28.6l-1.8-1.2l0.6-0.9l4.7,3l-0.6,0.9l-1.8-1.2l-3.3,5l-1.1-0.7L238.9,28.6z"/>
			<path class="st1" d="M246.2,32l1.9,1.3c1.4,0.9,1.9,1.9,1.1,3.2c-0.8,1.3-2.2,1.1-3.4,0.3l-0.8-0.5l-1.6,2.5l-1.1-0.7L246.2,32z
				 M246.3,35.7c0.7,0.4,1.4,0.7,1.9,0c0.5-0.7-0.1-1.2-0.7-1.7l-0.8-0.5l-1.1,1.7L246.3,35.7z"/>
			<path class="st1" d="M254.9,37.4c1.9,1.2,2.4,3.3,1.2,5.2c-1.2,1.9-3.4,2.3-5.2,1.1c-1.8-1.2-2.3-3.3-1.1-5.2
				C250.9,36.6,253.1,36.2,254.9,37.4z M251.5,42.7c1.2,0.8,2.6,0.4,3.5-0.9c0.8-1.2,0.6-2.7-0.6-3.5c-1.2-0.8-2.7-0.4-3.4,0.8
				C250,40.5,250.2,41.9,251.5,42.7z"/>
			<path class="st1" d="M259.6,40.7l1.9,1.3c1.4,0.9,1.9,1.9,1.1,3.2c-0.8,1.3-2.2,1.1-3.4,0.3l-0.8-0.5l-1.6,2.5l-1.1-0.7
				L259.6,40.7z M259.7,44.5c0.7,0.4,1.4,0.7,1.9,0c0.5-0.7-0.1-1.2-0.7-1.7l-0.8-0.5L259,44L259.7,44.5z"/>
			<path class="st1" d="M267.6,51.3c-0.9,1.4-2.5,1.7-3.9,0.8c-1.4-0.9-1.8-2.4-0.9-3.9l2.4-3.8l1.1,0.7l-2.4,3.7
				c-0.4,0.7-0.6,1.6,0.4,2.3s1.8,0.1,2.3-0.6l2.4-3.7l1.1,0.7L267.6,51.3z"/>
			<path class="st1" d="M271.9,48.7l1.1,0.7l-3.2,5l2.5,1.6l-0.6,0.9l-3.6-2.3L271.9,48.7z"/>
			<path class="st1" d="M278.7,53.1l0.9,0.6l-1.3,7.6l-1.2-0.8l0.3-1.7l-2.6-1.7l-1.4,1l-1.2-0.8L278.7,53.1z M277.7,57.7l0.7-3
				l-2.5,1.8L277.7,57.7z"/>
		</g>
		<g>
			<path class="st1" d="M283.4,56.2l2.1,1.3c1.1,0.7,1.9,1.9,1.1,3.1c-0.6,0.9-1.4,1.1-2.4,0.7L284,65l-1.3-0.8l0.3-3.4l-0.8-0.5
				l-1.6,2.5l-1.1-0.7L283.4,56.2z M283.7,60c0.6,0.4,1.4,0.7,1.8,0c0.4-0.6-0.1-1.2-0.7-1.6l-1-0.6l-1.1,1.7L283.7,60z"/>
		</g>
	</g>
	<path class="st4" d="M7.6,588c0,0,75,5.1,78,5.1c3,0,72.2-5.1,72.2-5.1v-22.9H7.6V588z"/>
	<g>
		<path class="st1" d="M26,581.1l-0.7-1.7H22l-0.6,1.7h-2.2l3.6-8.5h2l3.5,8.5H26z M23.7,574.8l-1.1,2.9h2.1L23.7,574.8z"/>
		<path class="st1" d="M32.1,581.1H29v-8.5H32c2.4,0,4.9,1,4.9,4.2C36.9,579.8,34.5,581.1,32.1,581.1z M32,574.3h-1v5h1
			c1.5,0,2.8-0.6,2.8-2.5C34.8,574.9,33.4,574.3,32,574.3z"/>
		<path class="st1" d="M41.4,581.1h-3.2v-8.5h3.1c2.4,0,4.9,1,4.9,4.2C46.2,579.8,43.8,581.1,41.4,581.1z M41.3,574.3h-1v5h1
			c1.5,0,2.8-0.6,2.8-2.5C44.1,574.9,42.7,574.3,41.3,574.3z"/>
		<path class="st1" d="M47.2,578.7v-1.6h3v1.6H47.2z"/>
		<path class="st1" d="M55.8,581.3c-2.7,0-4.6-1.8-4.6-4.5c0-2.7,2-4.4,4.6-4.4c2.7,0,4.6,1.7,4.6,4.4
			C60.4,579.5,58.4,581.3,55.8,581.3z M55.8,574.2c-1.4,0-2.4,1.1-2.4,2.6c0,1.5,1,2.6,2.4,2.6s2.4-1.1,2.4-2.6
			C58.2,575.3,57.2,574.2,55.8,574.2z"/>
		<path class="st1" d="M67.2,581.1l-3.4-5.6h0l0,5.6h-2v-8.5h2.3l3.4,5.5h0l0-5.5h2v8.5H67.2z"/>
		<path class="st1" d="M75.8,574.8c-0.3-0.4-1-0.7-1.5-0.7c-0.5,0-1.2,0.2-1.2,0.9c0,0.6,0.5,0.7,1.3,1c1.2,0.4,2.6,0.9,2.6,2.6
			c0,2-1.6,2.8-3.2,2.8c-1.2,0-2.4-0.4-3.2-1.2l1.3-1.4c0.4,0.5,1.2,0.9,1.8,0.9c0.6,0,1.2-0.2,1.2-0.9c0-0.6-0.6-0.9-1.8-1.2
			c-1.1-0.3-2.2-0.9-2.2-2.4c0-1.9,1.7-2.7,3.3-2.7c1,0,2,0.4,2.8,1L75.8,574.8z"/>
		<path class="st1" d="M84.2,584.1l0-12h1.6v12H84.2z"/>
		<path class="st1" d="M96.2,581.3c-1.5,0-2.8-0.8-3.2-2.2l1.8-0.6c0.2,0.6,0.7,1,1.4,1c0.7,0,1.3-0.4,1.3-1.2c0-1-0.9-1.3-1.7-1.3
			c-0.6,0-1.5,0.2-2.1,0.4l0.2-4.9h5.2v1.7h-3.4l-0.1,1.3c0.3-0.1,0.6-0.1,0.9-0.1c1.7,0,3.1,0.9,3.1,2.7
			C99.5,580.3,97.9,581.3,96.2,581.3z"/>
		<path class="st1" d="M104.2,581.3c-2.4,0-3.3-2.1-3.3-4.5c0-2.4,0.9-4.4,3.3-4.4c2.4,0,3.3,2.1,3.3,4.4
			C107.5,579.2,106.6,581.3,104.2,581.3z M104.2,574.1c-1.1,0-1.3,1.7-1.3,2.7c0,1.1,0.2,2.8,1.3,2.8c1.1,0,1.2-1.7,1.2-2.8
			C105.4,575.7,105.2,574.1,104.2,574.1z"/>
		<path class="st1" d="M110.7,577c-1.3,0-2.3-1-2.3-2.3c0-1.3,1-2.3,2.3-2.3s2.3,1,2.3,2.3C113,576,112,577,110.7,577z M110.7,573.8
			c-0.5,0-0.9,0.4-0.9,0.9s0.4,0.9,0.9,0.9s0.9-0.4,0.9-0.9S111.2,573.8,110.7,573.8z M111.6,581.5l-1.1-0.5l5-8.8l1.1,0.5
			L111.6,581.5z M116.5,581.2c-1.3,0-2.3-1-2.3-2.3c0-1.3,1-2.3,2.3-2.3s2.3,1,2.3,2.3C118.7,580.2,117.7,581.2,116.5,581.2z
			 M116.5,578c-0.5,0-0.9,0.4-0.9,0.9s0.4,0.9,0.9,0.9c0.5,0,0.9-0.4,0.9-0.9S117,578,116.5,578z"/>
		<path class="st1" d="M127.2,581.3c-2.7,0-4.6-1.8-4.6-4.5c0-2.7,2-4.4,4.6-4.4c2.7,0,4.6,1.7,4.6,4.4
			C131.8,579.5,129.8,581.3,127.2,581.3z M127.2,574.2c-1.4,0-2.4,1.1-2.4,2.6c0,1.5,1,2.6,2.4,2.6c1.4,0,2.4-1.1,2.4-2.6
			C129.6,575.3,128.6,574.2,127.2,574.2z"/>
		<path class="st1" d="M135.2,574.3v1.8h3.3v1.7h-3.3v3.3h-2v-8.5h5.6v1.8H135.2z"/>
		<path class="st1" d="M142.1,574.3v1.8h3.3v1.7h-3.3v3.3h-2v-8.5h5.6v1.8H142.1z"/>
	</g>
	<path class="st4" d="M7.7,623.9c0,0,75,5.1,78,5.1c3,0,72.2-5.1,72.2-5.1V601H7.7V623.9z"/>
	<g>
		<path class="st1" d="M60.4,618l-0.7-1.7h-3.3l-0.6,1.7h-2.2l3.6-8.5h2l3.5,8.5H60.4z M58.1,611.8l-1.1,2.9h2.1L58.1,611.8z"/>
		<path class="st1" d="M66.6,618h-3.2v-8.5h3.1c2.4,0,4.9,1,4.9,4.2C71.4,616.7,68.9,618,66.6,618z M66.5,611.3h-1v5h1
			c1.5,0,2.8-0.6,2.8-2.5C69.2,611.8,67.9,611.3,66.5,611.3z"/>
		<path class="st1" d="M75.9,618h-3.2v-8.5h3.1c2.4,0,4.9,1,4.9,4.2C80.7,616.7,78.3,618,75.9,618z M75.8,611.3h-1v5h1
			c1.5,0,2.8-0.6,2.8-2.5C78.5,611.8,77.2,611.3,75.8,611.3z"/>
		<path class="st1" d="M81.6,615.6v-1.6h3v1.6H81.6z"/>
		<path class="st1" d="M90.2,618.2c-2.7,0-4.6-1.8-4.6-4.5c0-2.7,2-4.4,4.6-4.4c2.7,0,4.6,1.7,4.6,4.4
			C94.8,616.4,92.9,618.2,90.2,618.2z M90.2,611.1c-1.4,0-2.4,1.1-2.4,2.6c0,1.5,1,2.6,2.4,2.6s2.4-1.1,2.4-2.6
			C92.7,612.2,91.7,611.1,90.2,611.1z"/>
		<path class="st1" d="M101.6,618l-3.4-5.6h0l0,5.6h-2v-8.5h2.3l3.4,5.5h0l0-5.5h2v8.5H101.6z"/>
		<path class="st1" d="M110.2,611.7c-0.3-0.4-1-0.7-1.5-0.7c-0.5,0-1.2,0.2-1.2,0.9c0,0.6,0.5,0.7,1.3,1c1.2,0.4,2.6,0.9,2.6,2.6
			c0,2-1.6,2.8-3.2,2.8c-1.2,0-2.4-0.4-3.2-1.2l1.3-1.4c0.4,0.5,1.2,0.9,1.8,0.9c0.6,0,1.2-0.2,1.2-0.9c0-0.6-0.6-0.9-1.8-1.2
			c-1.1-0.3-2.2-0.9-2.2-2.4c0-1.9,1.7-2.7,3.3-2.7c1,0,2,0.4,2.8,1L110.2,611.7z"/>
	</g>
	<path class="st0" d="M7.7,372c0,0,75,5.1,78,5.1c3,0,72.2-5.1,72.2-5.1v-22.9H7.7V372z"/>
	<g>
		<path class="st1" d="M29.6,365.1l-0.7-1.7h-3.3l-0.6,1.7h-2.2l3.6-8.5h2l3.5,8.5H29.6z M27.4,358.9l-1.1,2.9h2.1L27.4,358.9z"/>
		<path class="st1" d="M35.8,365.1h-3.2v-8.5h3.1c2.4,0,4.9,1,4.9,4.2C40.6,363.8,38.2,365.1,35.8,365.1z M35.7,358.4h-1v5h1
			c1.5,0,2.8-0.6,2.8-2.5C38.4,358.9,37.1,358.4,35.7,358.4z"/>
		<path class="st1" d="M45.1,365.1H42v-8.5H45c2.4,0,4.9,1,4.9,4.2C49.9,363.8,47.5,365.1,45.1,365.1z M45,358.4h-1v5h1
			c1.5,0,2.8-0.6,2.8-2.5C47.8,358.9,46.4,358.4,45,358.4z"/>
		<path class="st1" d="M50.8,362.8v-1.6h3v1.6H50.8z"/>
		<path class="st1" d="M59.4,365.4c-2.7,0-4.6-1.8-4.6-4.5c0-2.7,2-4.4,4.6-4.4c2.7,0,4.6,1.7,4.6,4.4
			C64.1,363.5,62.1,365.4,59.4,365.4z M59.4,358.3c-1.4,0-2.4,1.1-2.4,2.6c0,1.5,1,2.6,2.4,2.6s2.4-1.1,2.4-2.6
			C61.9,359.4,60.9,358.3,59.4,358.3z"/>
		<path class="st1" d="M70.8,365.1l-3.4-5.6h0l0,5.6h-2v-8.5h2.3l3.4,5.5h0l0-5.5h2v8.5H70.8z"/>
		<path class="st1" d="M80.8,368.1l0-12h1.6v12H80.8z"/>
		<path class="st1" d="M92.8,365.4c-1.5,0-2.8-0.8-3.2-2.2l1.8-0.6c0.2,0.6,0.7,1,1.4,1c0.7,0,1.3-0.4,1.3-1.2c0-1-0.9-1.3-1.7-1.3
			c-0.6,0-1.5,0.2-2.1,0.4l0.2-4.9h5.2v1.7h-3.4l-0.1,1.3c0.3-0.1,0.6-0.1,0.9-0.1c1.7,0,3.1,0.9,3.1,2.7
			C96.1,364.4,94.5,365.4,92.8,365.4z"/>
		<path class="st1" d="M100.8,365.4c-2.4,0-3.3-2.1-3.3-4.5c0-2.4,0.9-4.4,3.3-4.4c2.4,0,3.3,2.1,3.3,4.4
			C104.1,363.3,103.2,365.4,100.8,365.4z M100.8,358.1c-1.1,0-1.3,1.7-1.3,2.7c0,1.1,0.2,2.8,1.3,2.8c1.1,0,1.2-1.7,1.2-2.8
			C102,359.8,101.8,358.1,100.8,358.1z"/>
		<path class="st1" d="M107.3,361c-1.3,0-2.3-1-2.3-2.3c0-1.3,1-2.3,2.3-2.3s2.3,1,2.3,2.3C109.5,360,108.5,361,107.3,361z
			 M107.3,357.8c-0.5,0-0.9,0.4-0.9,0.9s0.4,0.9,0.9,0.9s0.9-0.4,0.9-0.9S107.8,357.8,107.3,357.8z M108.2,365.5l-1.1-0.5l5-8.8
			l1.1,0.5L108.2,365.5z M113,365.3c-1.3,0-2.3-1-2.3-2.3c0-1.3,1-2.3,2.3-2.3s2.3,1,2.3,2.3C115.3,364.3,114.3,365.3,113,365.3z
			 M113,362.1c-0.5,0-0.9,0.4-0.9,0.9s0.4,0.9,0.9,0.9c0.5,0,0.9-0.4,0.9-0.9S113.5,362.1,113,362.1z"/>
		<path class="st1" d="M123.7,365.4c-2.7,0-4.6-1.8-4.6-4.5c0-2.7,2-4.4,4.6-4.4c2.7,0,4.6,1.7,4.6,4.4
			C128.3,363.5,126.4,365.4,123.7,365.4z M123.7,358.3c-1.4,0-2.4,1.1-2.4,2.6c0,1.5,1,2.6,2.4,2.6c1.4,0,2.4-1.1,2.4-2.6
			C126.2,359.4,125.2,358.3,123.7,358.3z"/>
		<path class="st1" d="M131.8,358.4v1.8h3.3v1.7h-3.3v3.3h-2v-8.5h5.6v1.8H131.8z"/>
		<path class="st1" d="M138.7,358.4v1.8h3.3v1.7h-3.3v3.3h-2v-8.5h5.6v1.8H138.7z"/>
	</g>
	<path class="st0" d="M7.7,408c0,0,75,5.1,78,5.1c3,0,72.2-5.1,72.2-5.1v-22.9H7.7V408z"/>
	<g>
		<path class="st1" d="M64,402.1l-0.7-1.7H60l-0.6,1.7h-2.2l3.6-8.5h2l3.5,8.5H64z M61.7,395.8l-1.1,2.9h2.1L61.7,395.8z"/>
		<path class="st1" d="M70.1,402.1H67v-8.5H70c2.4,0,4.9,1,4.9,4.2C74.9,400.8,72.5,402.1,70.1,402.1z M70,395.3h-1v5h1
			c1.5,0,2.8-0.6,2.8-2.5C72.8,395.9,71.4,395.3,70,395.3z"/>
		<path class="st1" d="M79.5,402.1h-3.2v-8.5h3.1c2.4,0,4.9,1,4.9,4.2C84.2,400.8,81.8,402.1,79.5,402.1z M79.3,395.3h-1v5h1
			c1.5,0,2.8-0.6,2.8-2.5C82.1,395.9,80.7,395.3,79.3,395.3z"/>
		<path class="st1" d="M85.2,399.7v-1.6h3v1.6H85.2z"/>
		<path class="st1" d="M93.8,402.3c-2.7,0-4.6-1.8-4.6-4.5c0-2.7,2-4.4,4.6-4.4c2.7,0,4.6,1.7,4.6,4.4
			C98.4,400.5,96.4,402.3,93.8,402.3z M93.8,395.2c-1.4,0-2.4,1.1-2.4,2.6c0,1.5,1,2.6,2.4,2.6s2.4-1.1,2.4-2.6
			C96.2,396.3,95.2,395.2,93.8,395.2z"/>
		<path class="st1" d="M105.2,402.1l-3.4-5.6h0l0,5.6h-2v-8.5h2.3l3.4,5.5h0l0-5.5h2v8.5H105.2z"/>
	</g>
	<path class="st4" d="M7.7,444.1c0,0,75,5.1,78,5.1c3,0,72.2-5.1,72.2-5.1v-22.9H7.7V444.1z"/>
	<g>
		<path class="st1" d="M29.6,437.2l-0.7-1.7h-3.3l-0.6,1.7h-2.2l3.6-8.5h2l3.5,8.5H29.6z M27.4,431l-1.1,2.9h2.1L27.4,431z"/>
		<path class="st1" d="M35.8,437.2h-3.2v-8.5h3.1c2.4,0,4.9,1,4.9,4.2C40.6,436,38.2,437.2,35.8,437.2z M35.7,430.5h-1v5h1
			c1.5,0,2.8-0.6,2.8-2.5C38.4,431.1,37.1,430.5,35.7,430.5z"/>
		<path class="st1" d="M45.1,437.2H42v-8.5H45c2.4,0,4.9,1,4.9,4.2C49.9,436,47.5,437.2,45.1,437.2z M45,430.5h-1v5h1
			c1.5,0,2.8-0.6,2.8-2.5C47.8,431.1,46.4,430.5,45,430.5z"/>
		<path class="st1" d="M50.8,434.9v-1.6h3v1.6H50.8z"/>
		<path class="st1" d="M59.4,437.5c-2.7,0-4.6-1.8-4.6-4.5c0-2.7,2-4.4,4.6-4.4c2.7,0,4.6,1.7,4.6,4.4
			C64.1,435.6,62.1,437.5,59.4,437.5z M59.4,430.4c-1.4,0-2.4,1.1-2.4,2.6c0,1.5,1,2.6,2.4,2.6s2.4-1.1,2.4-2.6
			C61.9,431.5,60.9,430.4,59.4,430.4z"/>
		<path class="st1" d="M70.8,437.2l-3.4-5.6h0l0,5.6h-2v-8.5h2.3l3.4,5.5h0l0-5.5h2v8.5H70.8z"/>
		<path class="st1" d="M80.8,440.2l0-12h1.6v12H80.8z"/>
		<path class="st1" d="M92.8,437.5c-1.5,0-2.8-0.8-3.2-2.2l1.8-0.6c0.2,0.6,0.7,1,1.4,1c0.7,0,1.3-0.4,1.3-1.2c0-1-0.9-1.3-1.7-1.3
			c-0.6,0-1.5,0.2-2.1,0.4l0.2-4.9h5.2v1.7h-3.4l-0.1,1.3c0.3-0.1,0.6-0.1,0.9-0.1c1.7,0,3.1,0.9,3.1,2.7
			C96.1,436.5,94.5,437.5,92.8,437.5z"/>
		<path class="st1" d="M100.8,437.5c-2.4,0-3.3-2.1-3.3-4.5c0-2.4,0.9-4.4,3.3-4.4c2.4,0,3.3,2.1,3.3,4.4
			C104.1,435.4,103.2,437.5,100.8,437.5z M100.8,430.2c-1.1,0-1.3,1.7-1.3,2.7c0,1.1,0.2,2.8,1.3,2.8c1.1,0,1.2-1.7,1.2-2.8
			C102,431.9,101.8,430.2,100.8,430.2z"/>
		<path class="st1" d="M107.3,433.1c-1.3,0-2.3-1-2.3-2.3c0-1.3,1-2.3,2.3-2.3s2.3,1,2.3,2.3C109.5,432.1,108.5,433.1,107.3,433.1z
			 M107.3,429.9c-0.5,0-0.9,0.4-0.9,0.9s0.4,0.9,0.9,0.9s0.9-0.4,0.9-0.9S107.8,429.9,107.3,429.9z M108.2,437.6l-1.1-0.5l5-8.8
			l1.1,0.5L108.2,437.6z M113,437.4c-1.3,0-2.3-1-2.3-2.3c0-1.3,1-2.3,2.3-2.3s2.3,1,2.3,2.3C115.3,436.4,114.3,437.4,113,437.4z
			 M113,434.2c-0.5,0-0.9,0.4-0.9,0.9s0.4,0.9,0.9,0.9c0.5,0,0.9-0.4,0.9-0.9S113.5,434.2,113,434.2z"/>
		<path class="st1" d="M123.7,437.5c-2.7,0-4.6-1.8-4.6-4.5c0-2.7,2-4.4,4.6-4.4c2.7,0,4.6,1.7,4.6,4.4
			C128.3,435.6,126.4,437.5,123.7,437.5z M123.7,430.4c-1.4,0-2.4,1.1-2.4,2.6c0,1.5,1,2.6,2.4,2.6c1.4,0,2.4-1.1,2.4-2.6
			C126.2,431.5,125.2,430.4,123.7,430.4z"/>
		<path class="st1" d="M131.8,430.5v1.8h3.3v1.7h-3.3v3.3h-2v-8.5h5.6v1.8H131.8z"/>
		<path class="st1" d="M138.7,430.5v1.8h3.3v1.7h-3.3v3.3h-2v-8.5h5.6v1.8H138.7z"/>
	</g>
	<path class="st4" d="M7.7,480c0,0,75,5.1,78,5.1c3,0,72.2-5.1,72.2-5.1V457H7.7V480z"/>
	<g>
		<path class="st1" d="M64,474l-0.7-1.7H60l-0.6,1.7h-2.2l3.6-8.5h2l3.5,8.5H64z M61.7,467.8l-1.1,2.9h2.1L61.7,467.8z"/>
		<path class="st1" d="M70.1,474H67v-8.5H70c2.4,0,4.9,1,4.9,4.2C74.9,472.8,72.5,474,70.1,474z M70,467.3h-1v5h1
			c1.5,0,2.8-0.6,2.8-2.5C72.8,467.9,71.4,467.3,70,467.3z"/>
		<path class="st1" d="M79.5,474h-3.2v-8.5h3.1c2.4,0,4.9,1,4.9,4.2C84.2,472.8,81.8,474,79.5,474z M79.3,467.3h-1v5h1
			c1.5,0,2.8-0.6,2.8-2.5C82.1,467.9,80.7,467.3,79.3,467.3z"/>
		<path class="st1" d="M85.2,471.7v-1.6h3v1.6H85.2z"/>
		<path class="st1" d="M93.8,474.3c-2.7,0-4.6-1.8-4.6-4.5c0-2.7,2-4.4,4.6-4.4c2.7,0,4.6,1.7,4.6,4.4
			C98.4,472.4,96.4,474.3,93.8,474.3z M93.8,467.2c-1.4,0-2.4,1.1-2.4,2.6c0,1.5,1,2.6,2.4,2.6s2.4-1.1,2.4-2.6
			C96.2,468.3,95.2,467.2,93.8,467.2z"/>
		<path class="st1" d="M105.2,474l-3.4-5.6h0l0,5.6h-2v-8.5h2.3l3.4,5.5h0l0-5.5h2v8.5H105.2z"/>
	</g>
	<polygon class="st5" points="187.8,378.8 213.8,348.8 187.8,348.8 	"/>
	<polygon class="st6" points="227.8,396.6 233,391.4 227.8,386.2 229.1,385 234.3,390.2 239.4,385 240.7,386.2 235.5,391.4 
		240.7,396.6 239.4,397.9 234.3,392.7 229.1,397.9 	"/>
	<g>
		<path class="st7" d="M188.1,393.4c-0.2-0.1-0.3-0.3-0.3-0.6c0-0.2,0-0.4,0.2-0.6l0.9-1.1c0.1-0.2,0.3-0.3,0.6-0.3
			c0.2,0,0.4,0,0.6,0.2l3.5,2.7l6.3-8.3c0.1-0.2,0.3-0.3,0.6-0.3c0.2,0,0.4,0,0.6,0.2l1.1,0.9c0.2,0.1,0.3,0.3,0.3,0.6
			c0,0.2,0,0.4-0.2,0.6l-6.8,8.9l-0.9,1.1c-0.1,0.2-0.3,0.3-0.6,0.3c-0.2,0-0.4,0-0.6-0.2L188.1,393.4L188.1,393.4z"/>
	</g>
	<g>
		<path class="st8" d="M204.6,436.5l-1.7,1.7l-6.9-6.9l-6.9,6.9l-1.7-1.7l6.9-6.9l-6.9-6.9l1.7-1.7l6.9,6.9l6.9-6.9l1.7,1.7
			l-6.9,6.9L204.6,436.5z"/>
	</g>
	<g>
		<g>
			<path class="st7" d="M193.7,461.4h4.4v1.6h-4.4v4.4h-1.6V463h-4.4v-1.6h4.4v-4.4h1.6V461.4z"/>
		</g>
	</g>
	<g>
		<g>
			<path class="st7" d="M238.5,462.7h-10.8v-1.5h10.8V462.7z"/>
		</g>
	</g>
</g>
<g id="Layer_2">
	<path class="st9" d="M7.7,24.2c0-8.3,6.7-15,15-15h32c8.3,0,15,6.7,15,15c0,8.3-6.7,15-15,15h-32C14.4,39.2,7.7,32.5,7.7,24.2z"/>
	<circle class="st1" cx="56.7" cy="24.2" r="15"/>
	<g>
		<path class="st5" d="M56.7,10.2c1.9,0,3.7,0.4,5.4,1.1c1.2,0.5,2.4,1.2,3.5,2.1c1,0.9,2,1.9,2.7,3c1.6,2.3,2.4,5,2.4,7.8
			c0,7.7-6.3,14-14,14s-14-6.3-14-14S49,10.2,56.7,10.2 M56.7,9.2c-8.3,0-15,6.7-15,15c0,8.3,6.7,15,15,15c8.3,0,15-6.7,15-15
			c0-3.1-0.9-6-2.6-8.4c-0.8-1.2-1.8-2.3-2.9-3.2c-1.1-0.9-2.4-1.7-3.7-2.2C60.7,9.7,58.8,9.2,56.7,9.2L56.7,9.2z"/>
	</g>
	<path class="st10" d="M9.7,71.9c0-8.3,6.7-15,15-15h32c8.3,0,15,6.7,15,15c0,8.3-6.7,15-15,15h-32C16.4,86.9,9.7,80.2,9.7,71.9z"/>
	<circle class="st1" cx="22.7" cy="71.9" r="15"/>
	<g>
		<path class="st11" d="M22.7,57.9c7.7,0,14,6.3,14,14s-6.3,14-14,14s-14-6.3-14-14S15,57.9,22.7,57.9 M22.7,56.9
			c-8.3,0-15,6.7-15,15c0,8.3,6.7,15,15,15c8.3,0,15-6.7,15-15C37.7,63.6,31,56.9,22.7,56.9L22.7,56.9z"/>
	</g>
	<circle class="st12" cx="22.7" cy="71.9" r="15"/>
	<path class="st13" d="M56.7,105h-32c-8.3,0-15,6.7-15,15c0,8.3,6.7,15,15,15h32c8.3,0,15-6.7,15-15C71.7,111.7,65,105,56.7,105z"/>
	<circle class="st1" cx="22.7" cy="120" r="15"/>
	<g>
		<path class="st13" d="M22.7,106c7.7,0,14,6.3,14,14s-6.3,14-14,14s-14-6.3-14-14S15,106,22.7,106 M22.7,105c-8.3,0-15,6.7-15,15
			c0,8.3,6.7,15,15,15c8.3,0,15-6.7,15-15C37.7,111.7,31,105,22.7,105L22.7,105z"/>
	</g>
	<g>
		<path class="st14" d="M45.8,116.3c2.7,0,4.6,1.7,4.6,4.4c0,2.7-1.9,4.5-4.6,4.5c-2.6,0-4.5-1.8-4.5-4.5
			C41.2,118,43.2,116.3,45.8,116.3z M45.8,123.8c1.7,0,2.9-1.3,2.9-3.1c0-1.8-1.2-3.1-2.9-3.1c-1.8,0-2.9,1.4-2.9,3.1
			C42.9,122.5,44.1,123.8,45.8,123.8z"/>
		<path class="st14" d="M51.8,116.5h5.5v1.3h-4v2.3h3.7v1.3h-3.7v3.6h-1.5V116.5z"/>
		<path class="st14" d="M58.7,116.5h5.5v1.3h-4v2.3H64v1.3h-3.7v3.6h-1.5V116.5z"/>
	</g>
	<path class="st15" d="M54.2,152.9H22.5c-8.2,0-14.9,6.9-14.9,15.3c0,8.5,6.7,15.3,14.9,15.3h31.7c8.2,0,14.9-6.9,14.9-15.3
		C69.1,159.8,62.5,152.9,54.2,152.9z"/>
	<ellipse class="st1" cx="57.3" cy="168.2" rx="14.4" ry="14.8"/>
	<g>
		<path class="st15" d="M56.5,153.9c1.9,0,3.7,0.4,5.4,1.1c1.2,0.5,2.4,1.3,3.4,2.1c1,0.9,1.9,1.9,2.7,3c1.6,2.4,2.4,5.1,2.4,8
			c0,7.9-6.2,14.3-13.9,14.3s-13.9-6.4-13.9-14.3S48.9,153.9,56.5,153.9 M56.5,152.9c-8.2,0-14.9,6.9-14.9,15.3
			c0,8.5,6.7,15.3,14.9,15.3c8.2,0,14.9-6.9,14.9-15.3c0-3.2-0.9-6.1-2.5-8.6c-0.8-1.2-1.8-2.3-2.9-3.3c-1.1-0.9-2.3-1.7-3.7-2.3
			C60.5,153.4,58.6,152.9,56.5,152.9L56.5,152.9z"/>
	</g>
	<g>
		<path class="st1" d="M23.8,163.8c2.6,0,4.5,1.8,4.5,4.5c0,2.7-1.9,4.6-4.5,4.6c-2.6,0-4.5-1.9-4.5-4.6
			C19.3,165.6,21.2,163.8,23.8,163.8z M23.8,171.6c1.7,0,2.9-1.3,2.9-3.2c0-1.8-1.2-3.2-2.9-3.2c-1.7,0-2.9,1.4-2.9,3.2
			C20.9,170.2,22.1,171.6,23.8,171.6z"/>
		<path class="st1" d="M29.8,164.1h2l3.9,6.5h0v-6.5h1.5v8.7h-1.9l-4-6.7h0v6.7h-1.5V164.1z"/>
	</g>
	<path class="st11" d="M187.7,296.8c0,0,53.6-14.8,57-14.8s57,15,57,15v-95.8l-114-0.2V296.8z"/>
	<g>
		<g>
			<path class="st1" d="M230.4,226.1c0.6,0,0.9,0.2,0.9,0.8v2c0,0.6-0.3,0.8-0.9,0.8h-11.7v7.6h4c6.6,0,9.4,2.7,9.4,6.4v6
				c0,3.6-1.9,6.7-9.3,6.7c-7.4,0-9.3-3.1-9.3-6.7v-1.1c0-0.6,0.2-0.9,0.8-0.9h2.6c0.6,0,0.8,0.3,0.8,0.9v0.5c0,2.4,1.2,3.8,5.1,3.8
				c3.9,0,5.1-1.4,5.1-3.8v-4.8c0-1.9-1.3-3.4-5.1-3.4h-7.5c-0.6,0-0.8-0.3-0.8-0.9v-13c0-0.6,0.2-0.9,0.8-0.9H230.4z"/>
		</g>
		<g>
			<path class="st1" d="M236.3,232.5c0-3.6,2.2-6.8,9.5-6.8s9.6,3.2,9.6,6.8v17.1c0,3.6-2.2,6.8-9.6,6.8s-9.5-3.2-9.5-6.8V232.5z
				 M251.1,233.2c0-2.4-1.4-3.8-5.3-3.8s-5.2,1.5-5.2,3.8v15.7c0,2.4,1.3,3.8,5.2,3.8s5.3-1.5,5.3-3.8V233.2z"/>
		</g>
		<g>
			<path class="st1" d="M264,227.3c2,0,3.5,1.6,3.5,3.5s-1.6,3.5-3.5,3.5c-2,0-3.5-1.6-3.5-3.5S262,227.3,264,227.3z M264,229.1
				c-0.9,0-1.7,0.8-1.7,1.7s0.8,1.7,1.7,1.7s1.7-0.8,1.7-1.7S264.9,229.1,264,229.1z M271.7,226.9l1.6,0.7l-7.9,13.9l-1.6-0.7
				L271.7,226.9z M273,234.2c2,0,3.5,1.6,3.5,3.5s-1.6,3.5-3.5,3.5s-3.5-1.6-3.5-3.5S271.1,234.2,273,234.2z M273,236
				c-0.9,0-1.7,0.8-1.7,1.7s0.8,1.7,1.7,1.7s1.7-0.8,1.7-1.7S274,236,273,236z"/>
		</g>
		<g>
			<path class="st1" d="M263.9,247.7c2.2,0,3.8,1.4,3.8,3.7c0,2.2-1.6,3.7-3.8,3.7c-2.2,0-3.8-1.5-3.8-3.7
				C260.1,249.2,261.7,247.7,263.9,247.7z M263.9,254.1c1.4,0,2.4-1.1,2.4-2.6c0-1.5-1-2.6-2.4-2.6c-1.5,0-2.4,1.1-2.4,2.6
				C261.5,253,262.5,254.1,263.9,254.1z"/>
			<path class="st1" d="M269,247.9h4.6v1.1h-3.3v1.9h3.1v1.1h-3.1v3H269V247.9z"/>
			<path class="st1" d="M274.7,247.9h4.6v1.1H276v1.9h3.1v1.1H276v3h-1.3V247.9z"/>
		</g>
		<g>
			<path class="st1" d="M234.2,214.9c0,2.1-1.5,3.3-3.4,3.3s-3.4-1.3-3.4-3.3v-5.4h1.5v5.3c0,1,0.5,2,1.9,2s1.9-1.1,1.9-2v-5.3h1.5
				V214.9z"/>
			<path class="st1" d="M236,209.5h2.8c1.9,0,3.2,0.7,3.2,2.5c0,1.9-1.5,2.5-3.3,2.5h-1.2v3.5H236V209.5z M238.6,213.2
				c1,0,1.9-0.2,1.9-1.2c0-1-0.9-1.2-1.8-1.2h-1.1v2.4H238.6z"/>
			<path class="st1" d="M247.8,210.8h-2.6v-1.3h6.7v1.3h-2.6v7.2h-1.5V210.8z"/>
			<path class="st1" d="M256.7,209.3c2.7,0,4.6,1.7,4.6,4.4c0,2.7-1.9,4.5-4.6,4.5c-2.6,0-4.5-1.8-4.5-4.5
				C252.2,211,254.1,209.3,256.7,209.3z M256.7,216.9c1.7,0,2.9-1.3,2.9-3.1c0-1.8-1.2-3.1-2.9-3.1c-1.8,0-2.9,1.4-2.9,3.1
				C253.8,215.5,255,216.9,256.7,216.9z"/>
		</g>
		<g>
			<path class="st1" d="M207.4,262.9h4.6v1.1h-3.3v1.9h3.1v1.1h-3.1v3h-1.3V262.9z"/>
			<path class="st1" d="M216.6,262.7c2.2,0,3.8,1.4,3.8,3.7c0,2.2-1.6,3.7-3.8,3.7c-2.2,0-3.8-1.5-3.8-3.7
				C212.9,264.2,214.5,262.7,216.6,262.7z M216.7,269.1c1.4,0,2.4-1.1,2.4-2.6c0-1.5-1-2.6-2.4-2.6c-1.5,0-2.4,1.1-2.4,2.6
				C214.2,268,215.2,269.1,216.7,269.1z"/>
			<path class="st1" d="M221.7,262.9h2.5c1.3,0,2.6,0.5,2.6,2c0,1-0.6,1.7-1.6,1.9l1.9,3.1h-1.5l-1.6-3H223v3h-1.3V262.9z M224,266
				c0.7,0,1.5-0.2,1.5-1c0-0.8-0.8-1-1.4-1H223v2H224z"/>
			<path class="st1" d="M234.2,262.9l-1.8,2.6l0,0c0.2-0.1,0.5-0.1,0.8-0.1c1.2,0,2.3,1,2.3,2.3c0,1.5-1.1,2.5-2.6,2.5
				c-1.5,0-2.6-1.1-2.6-2.4c0-0.8,0.3-1.4,0.7-2.1l1.8-2.7H234.2z M232.8,269.2c0.8,0,1.4-0.6,1.4-1.4c0-0.8-0.5-1.4-1.3-1.4
				c-0.8,0-1.4,0.6-1.4,1.4C231.4,268.5,232,269.2,232.8,269.2z"/>
			<path class="st1" d="M239.2,262.9h2l1.8,5h0l1.8-5h2v7.1h-1.2v-5.7h0l-2.1,5.7h-0.9l-2.1-5.7h0v5.7h-1.2V262.9z"/>
			<path class="st1" d="M251.8,262.7c2.2,0,3.8,1.4,3.8,3.7c0,2.2-1.6,3.7-3.8,3.7c-2.2,0-3.8-1.5-3.8-3.7
				C248.1,264.2,249.7,262.7,251.8,262.7z M251.9,269.1c1.4,0,2.4-1.1,2.4-2.6c0-1.5-1-2.6-2.4-2.6c-1.5,0-2.4,1.1-2.4,2.6
				C249.4,268,250.4,269.1,251.9,269.1z"/>
			<path class="st1" d="M256.9,262.9h1.7l3.3,5.3h0v-5.3h1.3v7.1h-1.6l-3.4-5.5h0v5.5h-1.3V262.9z"/>
			<path class="st1" d="M266.2,264H264v-1.1h5.6v1.1h-2.2v6h-1.3V264z"/>
			<path class="st1" d="M270.4,262.9h1.3v2.9h3.3v-2.9h1.3v7.1H275v-3.1h-3.3v3.1h-1.3V262.9z"/>
			<path class="st1" d="M281.4,264.4c-0.3-0.3-0.8-0.6-1.3-0.6c-0.6,0-1.2,0.3-1.2,1c0,0.6,0.5,0.8,1.3,1.1c0.9,0.3,2.1,0.7,2.1,2.1
				c0,1.5-1.2,2.3-2.6,2.3c-0.9,0-1.9-0.3-2.4-1l0.9-0.8c0.3,0.5,1,0.8,1.5,0.8c0.6,0,1.3-0.3,1.3-1c0-0.7-0.7-1-1.6-1.2
				c-0.9-0.3-1.8-0.7-1.8-2c0-1.4,1.3-2.1,2.6-2.1c0.7,0,1.5,0.2,2.1,0.8L281.4,264.4z"/>
		</g>
	</g>
	<path class="st5" d="M7.6,296.6c0,0,53.2-15,57-15c3.8,0,57,14.8,57,14.8v-95.8l-114,0.2V296.6z"/>
	<g>
		<g>
			<path class="st1" d="M22.6,224.1c1.7,0,2.2-0.6,2.2-1.6v-0.8c0-1-0.5-1.6-2.1-1.6c-1.7,0-2.2,0.6-2.2,1.6v0.2
				c0,0.2-0.1,0.4-0.4,0.4h-1.1c-0.3,0-0.3-0.1-0.3-0.4v-0.5c0-1.6,0.8-2.9,4-2.9c3.2,0,4,1.3,4,2.8v1.4c0,1-0.3,1.7-1.6,2.1
				c1.3,0.4,1.7,1.2,1.7,2.2v1.9c0,1.5-0.9,2.8-4.1,2.8c-3.2,0-4.1-1.3-4.1-2.9v-0.5c0-0.2,0.1-0.4,0.3-0.4h1.1
				c0.2,0,0.3,0.1,0.3,0.4v0.2c0,1,0.6,1.6,2.3,1.6c1.7,0,2.3-0.6,2.3-1.6v-1.4c0-1-0.5-1.6-2.2-1.6h-1.6c-0.3,0-0.4-0.1-0.4-0.4
				v-0.8c0-0.3,0.1-0.4,0.4-0.4H22.6z"/>
			<path class="st1" d="M29.1,221.5c0-1.6,0.9-2.9,4.1-2.9c3.2,0,4.1,1.4,4.1,2.9v7.4c0,1.6-1,2.9-4.1,2.9c-3.2,0-4.1-1.4-4.1-2.9
				V221.5z M35.5,221.8c0-1-0.6-1.7-2.3-1.7c-1.7,0-2.3,0.6-2.3,1.7v6.8c0,1,0.6,1.7,2.3,1.7c1.7,0,2.3-0.6,2.3-1.7V221.8z"/>
			<path class="st1" d="M45.2,225.4c0.2,0,0.4,0.1,0.4,0.3v0.8c0,0.2-0.1,0.3-0.4,0.3h-5.1c-0.2,0-0.4-0.1-0.4-0.3v-0.8
				c0-0.2,0.1-0.3,0.4-0.3H45.2z"/>
			<path class="st1" d="M53.8,230.7c-0.6,0.4-1.6,1.1-3.2,1.1c-1.8,0-2.7-1-2.7-2.6v-4.6c0-1.6,0.8-2.6,2.7-2.6
				c1.5,0,2.5,0.7,3.1,1.1v-4.4c0-0.3,0.1-0.4,0.3-0.4h1.1c0.3,0,0.4,0.1,0.4,0.4v12.5c0,0.3-0.1,0.4-0.4,0.4h-1
				c-0.3,0-0.3-0.1-0.4-0.4L53.8,230.7z M49.8,228.9c0,0.7,0.3,1.2,1.4,1.2c1.2,0,2.2-0.7,2.6-1v-4.5c-0.4-0.3-1.4-1-2.6-1
				c-1.1,0-1.4,0.6-1.4,1.2V228.9z"/>
			<path class="st1" d="M58.1,224.6c0-1.5,1-2.6,3.6-2.6c2.7,0,3.6,1,3.6,2.6v6.6c0,0.3-0.1,0.4-0.3,0.4h-1c-0.3,0-0.3-0.1-0.4-0.4
				l0-0.6c-0.6,0.4-1.6,1.1-3,1.1c-1.8,0-2.7-1.1-2.7-2.3v-0.9c0-1.2,0.9-2.3,2.6-2.3h3v-1.5c0-0.8-0.4-1.3-1.8-1.3
				s-1.9,0.5-1.9,1.2v0.2c0,0.3-0.1,0.4-0.4,0.4h-1c-0.2,0-0.3-0.1-0.3-0.4V224.6z M63.5,229.3v-1.6h-2.6c-0.9,0-1.3,0.4-1.3,1.2
				v0.4c0,0.7,0.4,1.1,1.4,1.1C62.2,230.3,63.1,229.7,63.5,229.3z"/>
			<path class="st1" d="M70.5,228.1c0.2,0.5,0.3,1.2,0.3,1.3c0-0.1,0.2-0.8,0.3-1.3l1.9-5.5c0.1-0.2,0.2-0.4,0.4-0.4h1
				c0.2,0,0.4,0.1,0.3,0.4l-4.3,12.6c-0.1,0.2-0.2,0.4-0.4,0.4h-0.8c-0.3,0-0.4-0.1-0.3-0.4l1.1-3.4l-3.2-9.2
				c-0.1-0.2,0.1-0.4,0.3-0.4h1.1c0.2,0,0.3,0.2,0.4,0.4L70.5,228.1z"/>
			<path class="st1" d="M84.5,222.3c0.2,0,0.4,0.1,0.4,0.3v0.8c0,0.3-0.1,0.4-0.4,0.4h-2v5.1c0,0.8,0.5,1.3,1.9,1.3h0.4
				c0.2,0,0.4,0.1,0.4,0.4v0.8c0,0.3-0.1,0.4-0.4,0.4h-0.6c-2.7,0-3.5-0.9-3.5-2.6v-5.3h-1c-0.3,0-0.4-0.1-0.4-0.4v-0.7
				c0-0.2,0.1-0.3,0.4-0.4l0.9-0.1h0.1v-1.9c0-0.3,0.1-0.4,0.4-0.4h1.1c0.2,0,0.3,0.1,0.3,0.4v1.9H84.5z"/>
			<path class="st1" d="M92.1,222.4v0.9c0,0.3-0.1,0.4-0.4,0.4c-1.4,0.1-2.5,0.8-2.9,1.2v6.4c0,0.3-0.1,0.4-0.3,0.4h-1.1
				c-0.3,0-0.4-0.1-0.4-0.4v-8.7c0-0.2,0.1-0.4,0.4-0.4h1c0.3,0,0.3,0.1,0.4,0.4l0.1,0.8c0.5-0.5,1.6-1.3,3-1.3
				C92,222.1,92.1,222.2,92.1,222.4z"/>
			<path class="st1" d="M95.5,220.5c0,0.2-0.1,0.4-0.3,0.4H94c-0.3,0-0.4-0.1-0.4-0.4v-1.7c0-0.3,0.1-0.4,0.4-0.4h1.1
				c0.2,0,0.3,0.1,0.3,0.4V220.5z M95.5,231.3c0,0.3-0.1,0.4-0.3,0.4H94c-0.3,0-0.4-0.1-0.4-0.4v-8.7c0-0.3,0.1-0.4,0.4-0.4h1.1
				c0.2,0,0.3,0.1,0.3,0.4V231.3z"/>
			<path class="st1" d="M98,224.6c0-1.5,1-2.6,3.6-2.6c2.7,0,3.6,1,3.6,2.6v6.6c0,0.3-0.1,0.4-0.3,0.4h-1c-0.3,0-0.3-0.1-0.4-0.4
				l0-0.6c-0.6,0.4-1.6,1.1-3,1.1c-1.8,0-2.7-1.1-2.7-2.3v-0.9c0-1.2,0.9-2.3,2.6-2.3h3v-1.5c0-0.8-0.4-1.3-1.8-1.3
				s-1.9,0.5-1.9,1.2v0.2c0,0.3-0.1,0.4-0.4,0.4h-1c-0.2,0-0.3-0.1-0.3-0.4V224.6z M103.4,229.3v-1.6h-2.6c-0.9,0-1.3,0.4-1.3,1.2
				v0.4c0,0.7,0.4,1.1,1.4,1.1C102.1,230.3,103,229.7,103.4,229.3z"/>
			<path class="st1" d="M109.5,231.3c0,0.3-0.1,0.4-0.3,0.4h-1.1c-0.3,0-0.4-0.1-0.4-0.4v-12.5c0-0.3,0.1-0.4,0.4-0.4h1.1
				c0.2,0,0.3,0.1,0.3,0.4V231.3z"/>
		</g>
		<g>
			<path class="st1" d="M24.6,246.6h1.7l3.3,5.3h0v-5.3h1.3v7.1h-1.6l-3.4-5.5h0v5.5h-1.3V246.6z"/>
			<path class="st1" d="M35.8,246.4c2.2,0,3.8,1.4,3.8,3.7c0,2.2-1.6,3.7-3.8,3.7c-2.2,0-3.8-1.5-3.8-3.7
				C32,247.8,33.6,246.4,35.8,246.4z M35.8,252.7c1.4,0,2.4-1.1,2.4-2.6c0-1.5-1-2.6-2.4-2.6c-1.5,0-2.4,1.1-2.4,2.6
				C33.4,251.6,34.4,252.7,35.8,252.7z"/>
			<path class="st1" d="M48.4,248.2c-0.4-0.5-1-0.7-1.6-0.7c-1.5,0-2.4,1.1-2.4,2.6c0,1.5,0.9,2.6,2.4,2.6c0.8,0,1.4-0.3,1.7-0.8
				l1,0.7c-0.6,0.8-1.5,1.2-2.7,1.2c-2.2,0-3.8-1.5-3.8-3.7c0-2.3,1.7-3.7,3.8-3.7c0.9,0,2,0.3,2.6,1.1L48.4,248.2z"/>
			<path class="st1" d="M50.2,246.6h2.5c1.3,0,2.6,0.5,2.6,2c0,1-0.6,1.7-1.6,1.9l1.9,3.1H54l-1.6-3h-0.9v3h-1.3V246.6z M52.5,249.6
				c0.7,0,1.5-0.2,1.5-1c0-0.8-0.8-1-1.4-1h-1.1v2H52.5z"/>
			<path class="st1" d="M56.4,246.6h4.7v1.1h-3.4v1.8h3.2v1.1h-3.2v2h3.6v1.1h-4.9V246.6z"/>
			<path class="st1" d="M62.5,246.6H65c1.8,0,3.9,0.9,3.9,3.5c0,2.5-2.1,3.5-3.9,3.5h-2.5V246.6z M64.8,252.5c1.3,0,2.8-0.5,2.8-2.4
				c0-2-1.5-2.5-2.8-2.5h-1v4.9H64.8z"/>
			<path class="st1" d="M70.1,246.6h1.3v7.1h-1.3V246.6z"/>
			<path class="st1" d="M74.3,247.7h-2.2v-1.1h5.6v1.1h-2.2v6h-1.3V247.7z"/>
			<path class="st1" d="M85.8,248.2c-0.4-0.5-1-0.7-1.6-0.7c-1.5,0-2.4,1.1-2.4,2.6c0,1.5,0.9,2.6,2.4,2.6c0.8,0,1.4-0.3,1.7-0.8
				l1,0.7c-0.6,0.8-1.5,1.2-2.7,1.2c-2.2,0-3.8-1.5-3.8-3.7c0-2.3,1.7-3.7,3.8-3.7c0.9,0,2,0.3,2.6,1.1L85.8,248.2z"/>
			<path class="st1" d="M89.7,246.6h1.1l3,7.1h-1.4l-0.7-1.6h-3.1l-0.6,1.6h-1.4L89.7,246.6z M91.3,251l-1.1-2.9l-1.1,2.9H91.3z"/>
			<path class="st1" d="M94.5,246.6h2.5c1.3,0,2.6,0.5,2.6,2c0,1-0.6,1.7-1.6,1.9l1.9,3.1h-1.5l-1.6-3h-0.9v3h-1.3V246.6z
				 M96.7,249.6c0.7,0,1.5-0.2,1.5-1c0-0.8-0.8-1-1.4-1h-1.1v2H96.7z"/>
			<path class="st1" d="M100.7,246.6h2.5c1.8,0,3.9,0.9,3.9,3.5c0,2.5-2.1,3.5-3.9,3.5h-2.5V246.6z M103,252.5
				c1.3,0,2.8-0.5,2.8-2.4c0-2-1.5-2.5-2.8-2.5h-1v4.9H103z"/>
		</g>
		<g>
			<path class="st1" d="M45.9,260.6h1.7l3.3,5.3h0v-5.3h1.3v7.1h-1.6l-3.4-5.5h0v5.5h-1.3V260.6z"/>
			<path class="st1" d="M53.6,260.6h4.7v1.1h-3.4v1.8h3.2v1.1h-3.2v2h3.6v1.1h-4.9V260.6z"/>
			<path class="st1" d="M59.7,260.6h4.7v1.1H61v1.8h3.2v1.1H61v2h3.6v1.1h-4.9V260.6z"/>
			<path class="st1" d="M65.7,260.6h2.5c1.8,0,3.9,0.9,3.9,3.5c0,2.5-2.1,3.5-3.9,3.5h-2.5V260.6z M68.1,266.5
				c1.3,0,2.8-0.5,2.8-2.4c0-2-1.5-2.5-2.8-2.5h-1v4.9H68.1z"/>
			<path class="st1" d="M73.3,260.6H78v1.1h-3.4v1.8h3.2v1.1h-3.2v2h3.6v1.1h-4.9V260.6z"/>
			<path class="st1" d="M79.4,260.6h2.5c1.8,0,3.9,0.9,3.9,3.5c0,2.5-2.1,3.5-3.9,3.5h-2.5V260.6z M81.7,266.5
				c1.3,0,2.8-0.5,2.8-2.4c0-2-1.5-2.5-2.8-2.5h-1v4.9H81.7z"/>
		</g>
	</g>
	<path class="st11" d="M327.7,185.7c0,0,42.9-11.8,45.6-11.8s45.6,12,45.6,12v-76.6l-91.2-0.2V185.7z"/>
	<g>
		<g>
			<path class="st1" d="M361.9,129.2c0.5,0,0.7,0.2,0.7,0.7v1.6c0,0.5-0.2,0.7-0.7,0.7h-9.4v6.1h3.2c5.3,0,7.5,2.2,7.5,5.1v4.8
				c0,2.9-1.5,5.4-7.5,5.4s-7.5-2.5-7.5-5.4v-0.9c0-0.5,0.2-0.7,0.7-0.7h2c0.5,0,0.7,0.2,0.7,0.7v0.4c0,1.9,1,3,4,3c3.1,0,4-1.1,4-3
				v-3.8c0-1.5-1-2.7-4.1-2.7h-6c-0.5,0-0.6-0.2-0.6-0.7v-10.4c0-0.5,0.2-0.7,0.6-0.7H361.9z"/>
		</g>
		<g>
			<path class="st1" d="M366.6,134.3c0-2.9,1.8-5.4,7.6-5.4s7.7,2.5,7.7,5.4V148c0,2.9-1.8,5.4-7.7,5.4s-7.6-2.5-7.6-5.4V134.3z
				 M378.5,134.9c0-1.9-1.1-3.1-4.2-3.1s-4.2,1.2-4.2,3.1v12.5c0,1.9,1.1,3.1,4.2,3.1s4.2-1.2,4.2-3.1V134.9z"/>
		</g>
		<g>
			<path class="st1" d="M388.8,130.2c1.6,0,2.8,1.3,2.8,2.8s-1.3,2.8-2.8,2.8s-2.8-1.3-2.8-2.8S387.2,130.2,388.8,130.2z
				 M388.8,131.6c-0.8,0-1.4,0.6-1.4,1.4c0,0.8,0.6,1.4,1.4,1.4s1.4-0.6,1.4-1.4C390.1,132.2,389.5,131.6,388.8,131.6z M394.9,129.8
				l1.3,0.6l-6.3,11.2l-1.3-0.6L394.9,129.8z M396,135.6c1.6,0,2.8,1.3,2.8,2.8s-1.3,2.8-2.8,2.8s-2.8-1.3-2.8-2.8
				S394.5,135.6,396,135.6z M396,137.1c-0.8,0-1.4,0.6-1.4,1.4s0.6,1.4,1.4,1.4s1.4-0.6,1.4-1.4S396.8,137.1,396,137.1z"/>
		</g>
		<g>
			<path class="st1" d="M388.7,146.5c1.8,0,3.1,1.1,3.1,3c0,1.8-1.3,3-3.1,3c-1.7,0-3-1.2-3-3C385.7,147.6,387,146.5,388.7,146.5z
				 M388.7,151.5c1.2,0,2-0.9,2-2.1c0-1.2-0.8-2.1-2-2.1c-1.2,0-1.9,0.9-1.9,2.1C386.8,150.7,387.6,151.5,388.7,151.5z"/>
			<path class="st1" d="M392.8,146.6h3.7v0.9h-2.6v1.6h2.5v0.8h-2.5v2.4h-1V146.6z"/>
			<path class="st1" d="M397.4,146.6h3.7v0.9h-2.6v1.6h2.5v0.8h-2.5v2.4h-1V146.6z"/>
		</g>
		<g>
			<path class="st1" d="M364.9,120.2c0,1.6-1.2,2.7-2.7,2.7c-1.6,0-2.7-1-2.7-2.7v-4.3h1.2v4.3c0,0.8,0.4,1.6,1.5,1.6
				c1.2,0,1.5-0.8,1.5-1.6v-4.3h1.2V120.2z"/>
			<path class="st1" d="M366.4,115.9h2.2c1.6,0,2.6,0.5,2.6,2c0,1.5-1.2,2-2.6,2h-0.9v2.8h-1.2V115.9z M368.4,118.9
				c0.8,0,1.5-0.2,1.5-1s-0.7-1-1.5-1h-0.9v1.9H368.4z"/>
			<path class="st1" d="M375.8,117h-2.1v-1.1h5.4v1.1H377v5.7h-1.2V117z"/>
			<path class="st1" d="M383,115.7c2.1,0,3.7,1.4,3.7,3.6c0,2.1-1.5,3.6-3.7,3.6c-2.1,0-3.6-1.5-3.6-3.6
				C379.3,117.1,380.9,115.7,383,115.7z M383,121.8c1.4,0,2.3-1.1,2.3-2.5c0-1.4-0.9-2.5-2.3-2.5c-1.4,0-2.3,1.1-2.3,2.5
				C380.6,120.7,381.6,121.8,383,121.8z"/>
		</g>
		<g>
			<path class="st1" d="M343.5,158.6h3.7v0.9h-2.6v1.6h2.5v0.8h-2.5v2.4h-1V158.6z"/>
			<path class="st1" d="M350.9,158.5c1.8,0,3.1,1.1,3.1,3c0,1.8-1.3,3-3.1,3c-1.7,0-3-1.2-3-3C347.9,159.6,349.2,158.5,350.9,158.5z
				 M350.9,163.5c1.2,0,2-0.9,2-2.1c0-1.2-0.8-2.1-2-2.1c-1.2,0-1.9,0.9-1.9,2.1C349,162.7,349.8,163.5,350.9,163.5z"/>
			<path class="st1" d="M355,158.6h2c1.1,0,2.1,0.4,2.1,1.6c0,0.8-0.5,1.4-1.3,1.5l1.5,2.5H358l-1.3-2.4H356v2.4h-1V158.6z
				 M356.8,161.1c0.6,0,1.2-0.1,1.2-0.8c0-0.6-0.6-0.8-1.1-0.8H356v1.6H356.8z"/>
			<path class="st1" d="M364.9,158.6l-1.4,2.1l0,0c0.2-0.1,0.4-0.1,0.6-0.1c1,0,1.8,0.8,1.8,1.8c0,1.2-0.9,2-2.1,2
				c-1.2,0-2.1-0.8-2.1-1.9c0-0.6,0.2-1.1,0.6-1.7l1.4-2.2H364.9z M363.8,163.6c0.6,0,1.1-0.4,1.1-1.1c0-0.6-0.4-1.1-1.1-1.1
				c-0.6,0-1.1,0.5-1.1,1.1C362.7,163.1,363.2,163.6,363.8,163.6z"/>
			<path class="st1" d="M368.9,158.6h1.6l1.5,4h0l1.5-4h1.6v5.7h-1v-4.5h0l-1.7,4.5h-0.7l-1.7-4.5h0v4.5h-1V158.6z"/>
			<path class="st1" d="M379.1,158.5c1.8,0,3.1,1.1,3.1,3c0,1.8-1.3,3-3.1,3c-1.7,0-3-1.2-3-3C376,159.6,377.3,158.5,379.1,158.5z
				 M379.1,163.5c1.2,0,2-0.9,2-2.1c0-1.2-0.8-2.1-2-2.1c-1.2,0-1.9,0.9-1.9,2.1C377.1,162.7,377.9,163.5,379.1,163.5z"/>
			<path class="st1" d="M383.1,158.6h1.3l2.6,4.2h0v-4.2h1v5.7h-1.3l-2.7-4.4h0v4.4h-1V158.6z"/>
			<path class="st1" d="M390.5,159.5h-1.7v-0.9h4.5v0.9h-1.7v4.8h-1V159.5z"/>
			<path class="st1" d="M393.9,158.6h1v2.3h2.6v-2.3h1v5.7h-1v-2.5h-2.6v2.5h-1V158.6z"/>
			<path class="st1" d="M402.7,159.8c-0.2-0.3-0.6-0.5-1-0.5c-0.5,0-1,0.2-1,0.8c0,0.5,0.4,0.7,1.1,0.9c0.7,0.2,1.7,0.5,1.7,1.7
				c0,1.2-1,1.8-2.1,1.8c-0.7,0-1.5-0.3-1.9-0.8l0.7-0.7c0.3,0.4,0.8,0.6,1.2,0.6c0.5,0,1-0.2,1-0.8c0-0.6-0.6-0.8-1.3-1
				c-0.7-0.2-1.4-0.6-1.4-1.6c0-1.2,1-1.7,2.1-1.7c0.6,0,1.2,0.2,1.6,0.6L402.7,159.8z"/>
		</g>
	</g>
	<path class="st5" d="M187.8,185.8c0,0,42.6-12,45.6-12c3,0,45.6,11.8,45.6,11.8V109l-91.2,0.2V185.8z"/>
	<g>
		<g>
			<path class="st1" d="M199.8,127.8c1.4,0,1.8-0.4,1.8-1.3v-0.6c0-0.8-0.4-1.3-1.7-1.3c-1.3,0-1.7,0.5-1.7,1.3v0.2
				c0,0.2-0.1,0.3-0.3,0.3H197c-0.2,0-0.3-0.1-0.3-0.3v-0.4c0-1.2,0.6-2.3,3.2-2.3c2.5,0,3.2,1,3.2,2.3v1.1c0,0.8-0.3,1.4-1.2,1.6
				c1.1,0.3,1.4,0.9,1.4,1.7v1.5c0,1.2-0.7,2.3-3.3,2.3c-2.6,0-3.3-1.1-3.3-2.3v-0.4c0-0.2,0.1-0.3,0.3-0.3h0.9
				c0.2,0,0.3,0.1,0.3,0.3v0.2c0,0.8,0.5,1.3,1.8,1.3s1.8-0.5,1.8-1.3v-1.1c0-0.8-0.4-1.3-1.8-1.3h-1.3c-0.2,0-0.3-0.1-0.3-0.3v-0.7
				c0-0.2,0.1-0.3,0.3-0.3H199.8z"/>
			<path class="st1" d="M205,125.7c0-1.2,0.8-2.3,3.3-2.3c2.5,0,3.3,1.1,3.3,2.3v5.9c0,1.2-0.8,2.3-3.3,2.3c-2.5,0-3.3-1.1-3.3-2.3
				V125.7z M210.1,126c0-0.8-0.5-1.3-1.8-1.3c-1.4,0-1.8,0.5-1.8,1.3v5.4c0,0.8,0.5,1.3,1.8,1.3c1.4,0,1.8-0.5,1.8-1.3V126z"/>
			<path class="st1" d="M217.8,128.9c0.2,0,0.3,0.1,0.3,0.3v0.6c0,0.2-0.1,0.3-0.3,0.3h-4.1c-0.2,0-0.3-0.1-0.3-0.3v-0.6
				c0-0.2,0.1-0.3,0.3-0.3H217.8z"/>
			<path class="st1" d="M224.7,133.1c-0.4,0.3-1.3,0.9-2.5,0.9c-1.5,0-2.1-0.8-2.1-2.1v-3.6c0-1.2,0.7-2.1,2.1-2.1
				c1.2,0,2,0.5,2.5,0.9v-3.5c0-0.2,0.1-0.3,0.3-0.3h0.9c0.2,0,0.3,0.1,0.3,0.3v10c0,0.2-0.1,0.3-0.3,0.3H225
				c-0.2,0-0.3-0.1-0.3-0.3L224.7,133.1z M221.5,131.7c0,0.5,0.3,1,1.1,1c1,0,1.7-0.5,2.1-0.8v-3.6c-0.3-0.3-1.1-0.8-2.1-0.8
				c-0.9,0-1.1,0.5-1.1,1V131.7z"/>
			<path class="st1" d="M228.2,128.2c0-1.2,0.8-2.1,2.9-2.1c2.1,0,2.9,0.8,2.9,2.1v5.3c0,0.2-0.1,0.3-0.3,0.3h-0.8
				c-0.2,0-0.3-0.1-0.3-0.3l0-0.4c-0.4,0.3-1.2,0.9-2.4,0.9c-1.4,0-2.1-0.9-2.1-1.8v-0.7c0-1,0.7-1.8,2.1-1.8h2.4v-1.2
				c0-0.6-0.3-1-1.5-1c-1.2,0-1.5,0.4-1.5,1v0.1c0,0.2-0.1,0.3-0.3,0.3h-0.8c-0.2,0-0.3-0.1-0.3-0.3V128.2z M232.5,132v-1.3h-2.1
				c-0.8,0-1,0.3-1,0.9v0.3c0,0.6,0.3,0.9,1.1,0.9C231.4,132.8,232.2,132.3,232.5,132z"/>
			<path class="st1" d="M238.1,131c0.1,0.4,0.2,1,0.2,1c0-0.1,0.1-0.6,0.3-1l1.5-4.4c0.1-0.2,0.1-0.3,0.3-0.3h0.8
				c0.2,0,0.3,0.1,0.3,0.3l-3.4,10c0,0.2-0.1,0.3-0.3,0.3h-0.7c-0.2,0-0.3-0.1-0.3-0.3l0.9-2.7l-2.6-7.4c-0.1-0.2,0.1-0.3,0.3-0.3
				h0.9c0.2,0,0.3,0.1,0.3,0.3L238.1,131z"/>
			<path class="st1" d="M249.3,126.3c0.2,0,0.3,0.1,0.3,0.3v0.6c0,0.2-0.1,0.3-0.3,0.3h-1.6v4.1c0,0.6,0.4,1,1.5,1h0.3
				c0.2,0,0.3,0.1,0.3,0.3v0.6c0,0.2-0.1,0.3-0.3,0.3h-0.5c-2.1,0-2.8-0.7-2.8-2.1v-4.2h-0.8c-0.2,0-0.3-0.1-0.3-0.3v-0.5
				c0-0.2,0.1-0.3,0.3-0.3l0.7-0.1h0.1v-1.5c0-0.2,0.1-0.3,0.3-0.3h0.9c0.2,0,0.3,0.1,0.3,0.3v1.5H249.3z"/>
			<path class="st1" d="M255.4,126.5v0.7c0,0.2-0.1,0.3-0.3,0.3c-1.1,0.1-2,0.7-2.4,1v5.1c0,0.2-0.1,0.3-0.3,0.3h-0.9
				c-0.2,0-0.3-0.1-0.3-0.3v-6.9c0-0.2,0.1-0.3,0.3-0.3h0.8c0.2,0,0.3,0.1,0.3,0.3l0,0.7c0.4-0.4,1.3-1.1,2.4-1.1
				C255.3,126.2,255.4,126.3,255.4,126.5z"/>
			<path class="st1" d="M258.1,124.9c0,0.2-0.1,0.3-0.3,0.3h-0.9c-0.2,0-0.3-0.1-0.3-0.3v-1.4c0-0.2,0.1-0.3,0.3-0.3h0.9
				c0.2,0,0.3,0.1,0.3,0.3V124.9z M258.1,133.5c0,0.2-0.1,0.3-0.3,0.3h-0.9c-0.2,0-0.3-0.1-0.3-0.3v-6.9c0-0.2,0.1-0.3,0.3-0.3h0.9
				c0.2,0,0.3,0.1,0.3,0.3V133.5z"/>
			<path class="st1" d="M260.1,128.2c0-1.2,0.8-2.1,2.9-2.1c2.1,0,2.9,0.8,2.9,2.1v5.3c0,0.2-0.1,0.3-0.3,0.3h-0.8
				c-0.2,0-0.3-0.1-0.3-0.3l0-0.4c-0.4,0.3-1.2,0.9-2.4,0.9c-1.4,0-2.1-0.9-2.1-1.8v-0.7c0-1,0.7-1.8,2.1-1.8h2.4v-1.2
				c0-0.6-0.3-1-1.5-1c-1.2,0-1.5,0.4-1.5,1v0.1c0,0.2-0.1,0.3-0.3,0.3h-0.8c-0.2,0-0.3-0.1-0.3-0.3V128.2z M264.4,132v-1.3h-2.1
				c-0.8,0-1,0.3-1,0.9v0.3c0,0.6,0.3,0.9,1.1,0.9C263.4,132.8,264.1,132.3,264.4,132z"/>
			<path class="st1" d="M269.3,133.5c0,0.2-0.1,0.3-0.3,0.3h-0.9c-0.2,0-0.3-0.1-0.3-0.3v-10c0-0.2,0.1-0.3,0.3-0.3h0.9
				c0.2,0,0.3,0.1,0.3,0.3V133.5z"/>
		</g>
		<g>
			<path class="st1" d="M201.4,145.8h1.3l2.6,4.2h0v-4.2h1v5.7h-1.3l-2.7-4.4h0v4.4h-1V145.8z"/>
			<path class="st1" d="M210.3,145.6c1.8,0,3.1,1.1,3.1,3c0,1.8-1.3,3-3.1,3c-1.7,0-3-1.2-3-3C207.3,146.8,208.6,145.6,210.3,145.6z
				 M210.4,150.7c1.2,0,2-0.9,2-2.1c0-1.2-0.8-2.1-2-2.1c-1.2,0-1.9,0.9-1.9,2.1C208.4,149.8,209.2,150.7,210.4,150.7z"/>
			<path class="st1" d="M220.4,147.1c-0.3-0.4-0.8-0.6-1.3-0.6c-1.2,0-2,0.9-2,2.1c0,1.2,0.8,2.1,1.9,2.1c0.6,0,1.1-0.3,1.4-0.7
				l0.8,0.6c-0.5,0.6-1.2,1-2.2,1c-1.8,0-3-1.2-3-3c0-1.8,1.3-3,3.1-3c0.7,0,1.6,0.3,2.1,0.9L220.4,147.1z"/>
			<path class="st1" d="M221.8,145.8h2c1.1,0,2.1,0.4,2.1,1.6c0,0.8-0.5,1.4-1.3,1.5l1.5,2.5h-1.2l-1.3-2.4h-0.7v2.4h-1V145.8z
				 M223.7,148.2c0.6,0,1.2-0.1,1.2-0.8c0-0.6-0.6-0.8-1.1-0.8h-0.9v1.6H223.7z"/>
			<path class="st1" d="M226.8,145.8h3.8v0.9h-2.7v1.4h2.6v0.8h-2.6v1.6h2.9v0.9h-3.9V145.8z"/>
			<path class="st1" d="M231.7,145.8h2c1.5,0,3.1,0.7,3.1,2.8c0,2-1.6,2.8-3.1,2.8h-2V145.8z M233.5,150.6c1,0,2.2-0.4,2.2-2
				c0-1.6-1.2-2-2.2-2h-0.8v3.9H233.5z"/>
			<path class="st1" d="M237.7,145.8h1v5.7h-1V145.8z"/>
			<path class="st1" d="M241.1,146.7h-1.7v-0.9h4.5v0.9h-1.7v4.8h-1V146.7z"/>
			<path class="st1" d="M250.3,147.1c-0.3-0.4-0.8-0.6-1.3-0.6c-1.2,0-2,0.9-2,2.1c0,1.2,0.8,2.1,1.9,2.1c0.6,0,1.1-0.3,1.4-0.7
				l0.8,0.6c-0.5,0.6-1.2,1-2.2,1c-1.8,0-3-1.2-3-3c0-1.8,1.3-3,3.1-3c0.7,0,1.6,0.3,2.1,0.9L250.3,147.1z"/>
			<path class="st1" d="M253.4,145.8h0.9l2.4,5.7h-1.2l-0.5-1.3h-2.5l-0.5,1.3H251L253.4,145.8z M254.7,149.3l-0.9-2.3l-0.9,2.3
				H254.7z"/>
			<path class="st1" d="M257.3,145.8h2c1.1,0,2.1,0.4,2.1,1.6c0,0.8-0.5,1.4-1.3,1.5l1.5,2.5h-1.2L259,149h-0.7v2.4h-1V145.8z
				 M259.1,148.2c0.6,0,1.2-0.1,1.2-0.8c0-0.6-0.6-0.8-1.1-0.8h-0.9v1.6H259.1z"/>
			<path class="st1" d="M262.2,145.8h2c1.5,0,3.1,0.7,3.1,2.8c0,2-1.6,2.8-3.1,2.8h-2V145.8z M264.1,150.6c1,0,2.2-0.4,2.2-2
				c0-1.6-1.2-2-2.2-2h-0.8v3.9H264.1z"/>
		</g>
		<g>
			<path class="st1" d="M218.4,157h1.3l2.6,4.2h0V157h1v5.7h-1.3l-2.7-4.4h0v4.4h-1V157z"/>
			<path class="st1" d="M224.6,157h3.8v0.9h-2.7v1.4h2.6v0.8h-2.6v1.6h2.9v0.9h-3.9V157z"/>
			<path class="st1" d="M229.4,157h3.8v0.9h-2.7v1.4h2.6v0.8h-2.6v1.6h2.9v0.9h-3.9V157z"/>
			<path class="st1" d="M234.3,157h2c1.5,0,3.1,0.7,3.1,2.8c0,2-1.6,2.8-3.1,2.8h-2V157z M236.1,161.8c1,0,2.2-0.4,2.2-2
				c0-1.6-1.2-2-2.2-2h-0.8v3.9H236.1z"/>
			<path class="st1" d="M240.4,157h3.8v0.9h-2.7v1.4h2.6v0.8h-2.6v1.6h2.9v0.9h-3.9V157z"/>
			<path class="st1" d="M245.2,157h2c1.5,0,3.1,0.7,3.1,2.8c0,2-1.6,2.8-3.1,2.8h-2V157z M247,161.8c1,0,2.2-0.4,2.2-2
				c0-1.6-1.2-2-2.2-2h-0.8v3.9H247z"/>
		</g>
	</g>
	<g>
	</g>
	<g>
	</g>
	<g>
	</g>
	<g>
	</g>
	<g>
	</g>
	<g>
	</g>
	<g>
	</g>
</g>
</svg>
